/* XPM */
static char*GeoMorph_xpm[]={
"32 32 6 1",
"c c #008000",
"d c #004000",
"a c #404000",
"b c #000000",
"# c #ffffff",
". c None",
"................................",
"................................",
"................................",
"................................",
"........##......................",
".......####.....................",
"......######..........#.........",
".....########........###........",
"....##########......#####.......",
"...############....#######......",
"..###a#ab##a####..#########.....",
".#aaa##a#a#aa##a###a#####a##....",
"#aa##aaa#aa#aa####aa#########...",
"aa#aaaa#aaa#aaa#a##aa#a#a#####..",
"aaaaa##aaaaa#aaa#a#a#aa#aa#a#a#.",
"aaaaa#aaaaaaa#aaaaa#aa#aaaaaaa##",
"caaaaaaaaaaaaaaaaaaaaaaaaaaaaaaa",
"acacaaaaaaaaaaaaaaaaaaaaaaaaaaaa",
"accaaacaaaaaaaaaaaaaaaacaacaaaaa",
"ccaaacaaacaaaacaaacaaacaaaccacaa",
"cacacccaccacaaccaaccaaaccacacaac",
"acacccaacaaaaaaccaaccaaacacaaaac",
"cccccaaccacccaaaccacccaccaccaaac",
"cccaacccaaccacaaccaaccaacccccacc",
"ccaaccccacccccccccccacccaccccacc",
"ccacccccccccccccccccccccccccaaca",
"cccccccccccccccccccccccccccccccc",
"cccccccccddcdddccccccccccccccccc",
"ddcddcccdddcddddcddddcdddddccddc",
"dccddcddddccddddccddddcccddcccdd",
"dddddcdddddddddddcddddddddddddcd",
"dddddddddddddddddddddddddddddddd"};


