/* XPM */
static char *about_xpm[]={
"22 22 151 2",
"#B c #0b0b0b",
"#E c #101010",
"#n c #1b1b1b",
".q c #242424",
"#e c #252525",
"#q c #262626",
"#F c #272727",
"#3 c #292929",
"#r c #2b2b2b",
"au c #2d2d2d",
".g c #2e2e2e",
"aa c #2f2f2f",
"#I c #323232",
"#9 c #333333",
".4 c #353535",
"#i c #363636",
"#A c #383838",
".d c #3a3a3a",
".c c #3b3b3b",
"al c #3d3d3d",
"at c #3e3e3e",
".b c #3f3f3f",
".e c #404040",
".3 c #414141",
".a c #434343",
"ad c #444444",
".s c #454545",
"#m c #464646",
"#v c #474747",
".f c #494949",
"ac c #4b4b4b",
"ab c #4d4d4d",
".C c #4f4f4f",
"aj c #515151",
".r c #525252",
"ai c #545454",
"#a c #555555",
"#5 c #565656",
"ak c #575757",
"#7 c #585858",
".# c #595959",
"ao c #5b5b5b",
"Qt c #5c5c5c",
"ar c #5d5d5d",
"#w c #5e5e5e",
"ag c #5f5f5f",
"#0 c #606060",
".p c #626262",
"#C c #646464",
"#. c #656565",
"ah c #666666",
"#M c #676767",
"#Z c #696969",
".o c #6c6c6c",
"#p c #6f6f6f",
"#D c #707070",
".t c #717171",
"#Q c #727272",
".D c #737373",
"#b c #747474",
"#J c #757575",
".h c #777777",
"#2 c #787878",
"#4 c #797979",
".i c #7b7b7b",
"ae c #7d7d7d",
"af c #7e7e7e",
"aq c #7f7f7f",
"as c #808080",
"#X c #818181",
"#H c #828282",
"a. c #848484",
"#O c #858585",
"an c #868686",
"#8 c #888888",
"#1 c #8a8a8a",
"ap c #8b8b8b",
"a# c #8c8c8c",
"#W c #8d8d8d",
"#d c #8e8e8e",
"#T c #8f8f8f",
"#P c #909090",
".2 c #919191",
"#U c #929292",
"#V c #939393",
"#6 c #949494",
"#Y c #959595",
"#f c #969696",
"#s c #979797",
"am c #989898",
".B c #999999",
".P c #9a9a9a",
"#c c #9b9b9b",
"#u c #9c9c9c",
"## c #9d9d9d",
"#G c #9e9e9e",
".n c #9f9f9f",
".1 c #a0a0a0",
"#t c #a1a1a1",
".Y c #a2a2a2",
".9 c #a3a3a3",
".O c #a4a4a4",
".A c #a5a5a5",
".Z c #a6a6a6",
".0 c #a7a7a7",
".N c #a8a8a8",
"#S c #a9a9a9",
"#N c #aaaaaa",
".M c #ababab",
".z c #adadad",
"#o c #aeaeae",
".L c #afafaf",
".X c #b0b0b0",
".y c #b1b1b1",
".K c #b2b2b2",
".u c #b3b3b3",
".m c #b4b4b4",
".l c #b5b5b5",
"#R c #b7b7b7",
".k c #b8b8b8",
".j c #b9b9b9",
".x c #bbbbbb",
".J c #bcbcbc",
".W c #bdbdbd",
".5 c #bebebe",
".w c #bfbfbf",
".v c #c0c0c0",
".E c #c1c1c1",
".Q c #c2c2c2",
"#L c #c4c4c4",
"#K c #c5c5c5",
".I c #c7c7c7",
"#x c #c8c8c8",
".V c #c9c9c9",
"#j c #cccccc",
".F c #cfcfcf",
".U c #d0d0d0",
".H c #d4d4d4",
".6 c #d7d7d7",
".G c #d8d8d8",
".R c #d9d9d9",
"#l c #dadada",
"#y c #dcdcdc",
"#z c #dddddd",
"#g c #e6e6e6",
".T c #e8e8e8",
".S c #ebebeb",
"#k c #ededed",
".7 c #f1f1f1",
".8 c #f2f2f2",
"#h c #f6f6f6",
"QtQtQtQtQtQt.#.a.b.c.c.c.d.d.e.fQtQtQtQtQtQt",
"QtQtQtQtQt.e.g.h.i.j.k.l.m.n.o.p.q.rQtQtQtQt",
"QtQtQtQt.s.t.u.v.w.x.j.l.u.y.z.A.B.f.CQtQtQt",
"QtQtQt.e.D.E.F.G.H.I.J.u.K.L.M.N.O.P.a.CQtQt",
"QtQt.s.D.Q.R.S.T.U.V.W.K.X.Y.Z.0.O.1.2.3.rQt",
"QtQt.4.5.6.7.8.9#..n.k.X###a#b.9.O.Y#c#d#eQt",
"Qt.g#f.I#g#h#g#a#i.t.l.L#b.4.e.P.9.Y###f.r.s",
"Qt.q.y#j#g#k#l#m#n.p.y#o#p#q#r#s.Y#t#u#sQt.e",
"#v#w.k#x#y#z#x#A#B#C.z.z#D#E#F#f.1#G#c#f#H#I",
".e#J.j.w#K#L.J.2#M.z.M#N.Z#w#O.9.1.n.P#s#P.g",
".e#Q#R.j.j.k.l.X.z.M#S.Z.Z.Z.O.Y.1##.B#f#d.g",
".e#Q.m.l.u.Y.9.z.M#N.N.Z.A.Y#t.n#T#U#s#V#W.g",
".3#Q.K.y.X#H#P.z.N.N.0.9.O#t.1#G.D#X#Y.2#d.g",
"#vQt.z#o#o#Z#0#t.0.Z.O.O.Y#t.n#1.e#2#V#T#X#I",
"Qt.q.1.M.M#u#3#4.1.O.9.Y.1#G#U#5.f#6.2#d#7.e",
"Qt.g#8.Z.0.9#b#9#J.n.1.n#G.2#7.4a.#U#da#.f.s",
"QtQtaa.9.O.A#t.D.c#vababacad.bae.2#Ta#af.qQt",
"QtQtadag#G.1.1###Uahaiajak#p#T#P#T#da.alajQt",
"QtQtQt.e.p.P#c#c.B.B#sam#Y#V#P#d#dan.b.CQtQt",
"QtQtQtQtadaoap#6#f#6#U.2#P#P#da#aq.b.CQtQtQt",
"QtQtQtQtQt.e#r.#ar#T#T#T#dasag.C.q.rQtQtQtQt",
"QtQtQtQtQtQt.#.eat.g.gau.g#Iad.sQtQtQtQtQtQt"};

