/* XPM */
static char * bombe_xpm[] = {
"56 46 15 1",
" 	c None",
".	c #BEBABE",
"+	c #8E8679",
"@	c #010101",
"#	c #AE6161",
"$	c #FFE7BE",
"%	c #E7E7EF",
"&	c #79869E",
"*	c #AEAEB6",
"=	c #51A249",
"-	c #8E8A8E",
";	c #FFFFC7",
">	c #A6798E",
",	c #867986",
"'	c #000011",
"                                                       .",
"                                                        ",
"                                                        ",
"                                                        ",
"                                                        ",
"                                                        ",
"                                                        ",
"                                                        ",
"                                                        ",
"                                                        ",
"                                                        ",
"                                                        ",
"                                                        ",
"                                                        ",
"                                                        ",
"                       +@+@#                            ",
"                      @     @+                          ",
"                     +        @                         ",
"                     @        +                         ",
"                   @@@@@       @                        ",
"                   @@@@@       +                        ",
"                  @@@@@@@       @                       ",
"                @@@@@@@@@@@     +  $       $            ",
"               @@@@@@@@@@@@@    @      $  $             ",
"              @@@@@@@@@@@@@@@    +  $                   ",
"              @@@@@@@@%#+@@@@    @   $  $               ",
"             @@@@@@@@@@%&+@@@@    +                     ",
"             @@@@@@@@@@@@@@@@@     @+@ $ $ $            ",
"             @@@@@@@@@@@%+#@@@    *                     ",
"             @@@@@@@@@@@%=-@@@      ;   $               ",
"             @@@@@@@@@@@%>,@@@        $  $              ",
"             @@@@@@@@@@%-#@@@@     $                    ",
"             @@@@@@@@@@%+&@@@@    $   $    $            ",
"              @@@@@@@@%#+@@@@                           ",
"              @@@@@@@@@'@@@@@         $                 ",
"               @@@@@@@@@@@@@                            ",
"                @@@@@@@@@@@                             ",
"                  @@@@@@@                               ",
"                                                        ",
"                                                        ",
"                                                        ",
"                                                        ",
"                                                        ",
"                                                        ",
"                                                        ",
".                                                       "};
