/* XPM */
static char*brightness_xpm[]={
"22 22 9 1",
"e c #808080",
"d c #a0a0a0",
"b c #c3c3c3",
"c c #000000",
"g c #303030",
"f c #585858",
"# c #dcdcdc",
"a c #ffffff",
". c None",
"......................",
".######........aaaaaa.",
".######........aaaaaa.",
".######........aaaaaa.",
".bbbbbb........aaaaaa.",
".bbbbbb........######.",
".bbbbbb....c...######.",
".dddddd....cc..######.",
".dddddd....ccc.bbbbbb.",
".ddddddccccccccbbbbbb.",
".eeeeeeccccccccbbbbbb.",
".eeeeee....ccc.dddddd.",
".eeeeee....cc..dddddd.",
".ffffff....c...dddddd.",
".ffffff........eeeeee.",
".ffffff........eeeeee.",
".gggggg........eeeeee.",
".gggggg........ffffff.",
".gggggg........ffffff.",
".cccccc........ffffff.",
".cccccc........gggggg.",
"......................"};

