/* XPM */
static char * brightness_contrast_xpm[] = {
"22 22 5 1",
" 	c None",
".	c #000000",
"+	c #FFFFFF",
"@	c #B7B7B7",
"#	c #4C4C4C",
"...........+++++++++++",
"...........+++++++++++",
"...........+++++++++++",
"...........+++++++++++",
"...........+++++++++++",
"...........+++++++++++",
"...........+++++++++++",
"...........+++++++++++",
"...........+++++++++++",
"...........+++++++++++",
"...........+++++++++++",
"@@@@@@@@@@@###########",
"@@@@@@@@@@@###########",
"@@@@@@@@@@@###########",
"@@@@@@@@@@@###########",
"@@@@@@@@@@@###########",
"@@@@@@@@@@@###########",
"@@@@@@@@@@@###########",
"@@@@@@@@@@@###########",
"@@@@@@@@@@@###########",
"@@@@@@@@@@@###########",
"@@@@@@@@@@@###########"};
