/* XPM */
static char * bucketfill_xpm[] = {
"22 22 97 2",
"  	c None",
". 	c #C3C3C3",
"+ 	c #000000",
"@ 	c #090909",
"# 	c #1B1B1B",
"$ 	c #CACACA",
"% 	c #030303",
"& 	c #383838",
"* 	c #1D1D1D",
"= 	c #6E6E6E",
"- 	c #A1A1A1",
"; 	c #191919",
"> 	c #040404",
", 	c #1C1C1C",
"' 	c #6F6F6F",
") 	c #787878",
"! 	c #B4B4B4",
"~ 	c #EFEFEF",
"{ 	c #060606",
"] 	c #373737",
"^ 	c #1E1E1E",
"/ 	c #757575",
"( 	c #838383",
"_ 	c #A9A9A9",
": 	c #CDCDCD",
"< 	c #E9E9E9",
"[ 	c #161616",
"} 	c #202020",
"| 	c #767676",
"1 	c #868686",
"2 	c #B1B1B1",
"3 	c #C7C7C7",
"4 	c #D1D1D1",
"5 	c #232323",
"6 	c #BDBDBD",
"7 	c #0B0B0B",
"8 	c #363636",
"9 	c #323232",
"0 	c #2A2A2A",
"a 	c #2D2D2D",
"b 	c #969696",
"c 	c #D5D5D5",
"d 	c #4B4B4B",
"e 	c #111111",
"f 	c #A4A4A4",
"g 	c #8C8C8C",
"h 	c #131313",
"i 	c #2F2F2F",
"j 	c #3F3F3F",
"k 	c #818181",
"l 	c #7C7C7C",
"m 	c #DBDBDB",
"n 	c #171717",
"o 	c #626262",
"p 	c #5E5E5E",
"q 	c #0D0D0D",
"r 	c #3D3D3D",
"s 	c #7B7B7B",
"t 	c #1F1F1F",
"u 	c #676767",
"v 	c #AEAEAE",
"w 	c #F2F2F2",
"x 	c #5F5F5F",
"y 	c #565656",
"z 	c #4F4F4F",
"A 	c #272727",
"B 	c #585858",
"C 	c #141414",
"D 	c #4D4D4D",
"E 	c #B7B7B7",
"F 	c #575757",
"G 	c #878787",
"H 	c #393939",
"I 	c #121212",
"J 	c #696969",
"K 	c #E3E3E3",
"L 	c #5B5B5B",
"M 	c #070707",
"N 	c #464646",
"O 	c #0E0E0E",
"P 	c #9E9E9E",
"Q 	c #8F8F8F",
"R 	c #303030",
"S 	c #6B6B6B",
"T 	c #7E7E7E",
"U 	c #656565",
"V 	c #929292",
"W 	c #474747",
"X 	c #616161",
"Y 	c #0C0C0C",
"Z 	c #525252",
"` 	c #727272",
" .	c #3A3A3A",
"..	c #292929",
"+.	c #080808",
"@.	c #3C3C3C",
"#.	c #101010",
". . . . . . . + + . . . . . . . . . . . . . ",
". . . . . . + . . + . . . . . . . . . . . . ",
". . . . . . + . . + . . . . . . . . . . . . ",
". . . . . . + . + @ . . . . . . . . . . . . ",
". . . . . . + # $ % & . . . . . . . . . . . ",
". . . . . . * = - ; > . . . . . . . . . . . ",
". . . . . , ' ) ! ; ~ { ] . . . . . . . . . ",
". . . . ^ / ( _ : ; < = { [ ^ } . . . . . . ",
". . . ^ | 1 2 3 4 5 | ' 6 7 8 9 0 a ; . . . ",
". . ; ( b _ : c d e d 3 f g h i j k 0 ^ . . ",
". [ l - _ 6 m < n < # ! ) o p q 0 r s 0 e . ",
"t u ( v . c ~ w d h x l y z o x r   A B C . ",
"@ D E 6 m ~ w < 4 E ( o F G H , 7 + I d e . ",
". @ J c 3 K K : 2 l L J 1 8 M . . . C N h . ",
". . O u . f 2 P ) L ' Q & @ . . . . n R C . ",
". . . [ p ! / = y S T & 7 . . . . . n 0 [ . ",
". . . . ; U V W X ) & Y . . . . . . [ A [ . ",
". . . . . e Z Q `  .@ . . . . . . . h .., . ",
". . . . . . +.r @.M . . . . . . . . e 5 n . ",
". . . . . . . { > . . . . . . . . . @ * q . ",
". . . . . . . . . . . . . . . . . . @ , e . ",
". . . . . . . . . . . . . . . . . . . #.. . "};
