/* XPM */
static char * circular_project_xpm[] = {
"22 22 3 1",
" 	c None",
".	c #FF0000",
"+	c #000000",
".                    .",
" . .    ++++++    . . ",
"  ..  ++      ++  ..  ",
" ... +          ++... ",
"   ++            +    ",
"   +              +   ",
"  +                +  ",
"  +                +  ",
" +                  + ",
" +                  + ",
" +                  + ",
" +                  + ",
" +                  + ",
" +                  + ",
"  +                +  ",
"  +                +  ",
"   +              +   ",
"    +            ++   ",
" ...++          + ... ",
"  ..  ++      ++  ..  ",
" . .    ++++++    . . ",
".                    ."};
