/* XPM */
static char * city_xpm[] = {
"22 22 6 1",
" 	c None",
".	c #000000",
"+	c #999999",
"@	c #CECECE",
"#	c #E2E2E2",
"$	c #9B9B9B",
"                      ",
"                      ",
"       ......         ",
"       .+@+@.         ",
"       .+@+@.         ",
"       ......         ",
"       .+@+@.         ",
"       .+@+@.         ",
" ..... ......         ",
" .#.#. .+@+@.         ",
" ..... .+@+@. ....... ",
" .#.#. ...... .$.$.$. ",
" ..... .+@+@. ....... ",
" .#.#. .+@+@. .$.$.$. ",
" ..... ...... ....... ",
" .#.#. .+@+@. .$.$.$. ",
" ..... .+@+@. ....... ",
" .#.#. ...... .$.$.$. ",
" ..... .+@+@. ....... ",
" .#.#. .+@+@. .$.$.$. ",
" ..... ...... ....... ",
"                      "};
