/* XPM */
static char * close_xpm[] = {
"22 22 5 1",
" 	c None",
".	c #7B0000",
"+	c #000000",
"@	c #9A9494",
"#	c #E5E0E1",
"                      ",
"                ....  ",
"                ..    ",
"                . ..  ",
"  +++++         .   . ",
" ++@@@@+            . ",
" +@@@@@@++++++++    . ",
" +@@@@@@@@@@@@@+   .  ",
" +@@@@@@@@@@@@@+      ",
" +@@@@@@@@@@@@@+      ",
" +@@@@+++++++++++++++ ",
" +@@@@+#############+ ",
" +@@@+#############+  ",
" +@@@+#############+  ",
" +@@+#############+   ",
" +@@+#############+   ",
" +@+#############+    ",
" +@+#############+    ",
" ++#############+     ",
" ++#############+     ",
" +++++++++++++++      ",
"                      "};
