/* XPM */
static char*contrast_xpm[]={
"22 22 9 1",
"e c #808080",
"d c #a0a0a0",
"b c #c3c3c3",
"c c #000000",
"g c #303030",
"f c #585858",
"# c #dcdcdc",
"a c #ffffff",
". c None",
"......................",
".######........aaaaaa.",
".######........aaaaaa.",
".######........aaaaaa.",
".bbbbbb........aaaaaa.",
".bbbbbb........aaaaaa.",
".bbbbbb....c...aaaaaa.",
".dddddd....cc..aaaaaa.",
".dddddd....ccc.aaaaaa.",
".ddddddccccccccaaaaaa.",
".eeeeeecccccccccccccc.",
".eeeeee....ccc.cccccc.",
".eeeeee....cc..cccccc.",
".ffffff....c...cccccc.",
".ffffff........cccccc.",
".ffffff........cccccc.",
".gggggg........cccccc.",
".gggggg........cccccc.",
".gggggg........cccccc.",
".cccccc........cccccc.",
".cccccc........cccccc.",
"......................"};

