/* XPM */
static char * crackpen_xpm[] = {
"22 22 38 1",
" 	c None",
".	c #0F0F0F",
"+	c #7E7E7E",
"@	c #8E8E8E",
"#	c #8F8F8F",
"$	c #000000",
"%	c #FFFFFF",
"&	c #DCDCDC",
"*	c #A0A0A0",
"=	c #141414",
"-	c #636363",
";	c #7A7A7A",
">	c #8A8A8A",
",	c #1C1C1C",
"'	c #282828",
")	c #2C2C2C",
"!	c #6B6B6B",
"~	c #767676",
"{	c #676767",
"]	c #8C8C8C",
"^	c #828282",
"/	c #777777",
"(	c #2F2F2F",
"_	c #8D8D8D",
":	c #7F7F7F",
"<	c #7B7B7B",
"[	c #303030",
"}	c #8B8B8B",
"|	c #858585",
"1	c #6A6A6A",
"2	c #757575",
"3	c #626262",
"4	c #272727",
"5	c #2B2B2B",
"6	c #565656",
"7	c #202020",
"8	c #181818",
"9	c #242424",
".+@#######$%%&&$**####",
"=-;>@#####$%&&$$*#####",
",')!>#####$$&&$**#####",
"~{''!]####$$$$$*######",
"@>!''!####$$$$**######",
"#@>!')^###$$$**#######",
"##@>{)/@##$$**########",
"###@~(~_@#$**#########",
"#@#@/)-~/:#*##########",
"@_@@<[)()(^###########",
"#@##}</~-'{]##########",
"###@@@@_;));@@########",
"@@##@###>{'-~/:^]@####",
"/<>@@@##@;()(()){;}###",
")){~/<>@#}<//~{)'[<@##",
"{))())!>@@@@@@>;-)~@##",
"></~{''{~/<>@##@~){>@#",
"#@@@>!))()){;>@@;)'!>#",
"####@></~{)'){~;|1');@",
"######@@@>;{)))){234-+",
"##########@><~{)'565)7",
"############@@>;-89{~:"};
