/* XPM */
static char * create_xpm[] = {
"22 22 31 1",
" 	c None",
".	c #000000",
"+	c #05080C",
"@	c #979797",
"#	c #B9B9B9",
"$	c #A0A0A0",
"%	c #929394",
"&	c #D1D1D1",
"*	c #FFFFFF",
"=	c #FEFEFE",
"-	c #D4D4D4",
";	c #D5D5D5",
">	c #3C3C3C",
",	c #C0C0C0",
"'	c #FBFBFB",
")	c #DCDCDC",
"!	c #4F4F4F",
"~	c #0B1118",
"{	c #F8F8F8",
"]	c #CCCCCC",
"^	c #A2A2A2",
"/	c #939393",
"(	c #717171",
"_	c #F9F9F9",
":	c #D0D0D0",
"<	c #AFAFAF",
"[	c #8E8E8E",
"}	c #EBEBEB",
"|	c #B3B3B3",
"1	c #CFCFCF",
"2	c #B8B8B8",
"                      ",
"    .........+        ",
"    .@#####$.%.       ",
"    .&****=-.;>.      ",
"    .&****=,.')!~     ",
"    .&****=,.={].     ",
"    .&****=,.^^/(.    ",
"    .&****=,......    ",
"    .&****=_:<<<[.    ",
"    .&******})))|.    ",
"    .&**********1.    ",
"    .&**********1.    ",
"    .&**********1.    ",
"    .&**********1.    ",
"    .&**********1.    ",
"    .&**********1.    ",
"    .&**********1.    ",
"    .&**********1.    ",
"    .&**********1.    ",
"    .@2222222222@.    ",
"    ..............    ",
"                      "};
