/* XPM */
static char * dig_xpm[] = {
"22 22 56 1",
" 	c None",
".	c #000000",
"+	c #071C2C",
"@	c #081C2D",
"#	c #0A1929",
"$	c #105375",
"%	c #14839F",
"&	c #22BAD1",
"*	c #58ACC5",
"=	c #80C2DB",
"-	c #0A273B",
";	c #178EAC",
">	c #2CC7D5",
",	c #1197B9",
"'	c #CDEBF6",
")	c #2A98B3",
"!	c #43D5DE",
"~	c #FDFAFD",
"{	c #0A263B",
"]	c #2294B1",
"^	c #000101",
"/	c #0F5D7E",
"(	c #159ABC",
"_	c #0E97BF",
":	c #9DDEEE",
"<	c #114760",
"[	c #010304",
"}	c #20374F",
"|	c #06101D",
"1	c #1CA2C3",
"2	c #3CD7E1",
"3	c #0EA0C5",
"4	c #19B3CE",
"5	c #59C3DA",
"6	c #E2F0F9",
"7	c #819EBA",
"8	c #124C6D",
"9	c #07182A",
"0	c #135476",
"a	c #1290B5",
"b	c #48DFE9",
"c	c #71D1E0",
"d	c #FDFCFD",
"e	c #1B4F6F",
"f	c #071728",
"g	c #155A7A",
"h	c #1390B4",
"i	c #1B4B6A",
"j	c #155678",
"k	c #DDEFF8",
"l	c #194A6A",
"m	c #081E31",
"n	c #17587A",
"o	c #155474",
"p	c #0A121F",
"q	c #124D6F",
".                    .",
"..                  ..",
" ..                 . ",
" ..     ..+@#$     .. ",
" ..     .%&*=$     .. ",
"  .     -;>,'$     .  ",
"  ..    -)!,~$     .  ",
"  ..    {]!,'$    ..  ",
"   ....^/(&_:<.[}$..  ",
"   . |$123__45678 .   ",
"   .. 90ab34cd7e  .   ",
"   ..  fgh25d7i  ..   ",
"    .   fjhk7l   ..   ",
"    .    mn7o    .    ",
"    ..    pq    ..    ",
"    ..          ..    ",
"     ..        ..     ",
"      ..........      ",
"       ........       ",
"                      ",
"                      ",
"                      "};
