/* XPM */
static char * discard_red_xpm[] = {
"22 22 2 1",
" 	c None",
".	c #FF0000",
"                      ",
"                      ",
"                      ",
"                      ",
"                      ",
"    ..         ..     ",
"    ....      ..      ",
"     ....    ..       ",
"       ...  .         ",
"        .....         ",
"         ...          ",
"        .....         ",
"       ...  ..        ",
"      ...    ..       ",
"     ...      .       ",
"     ...       .      ",
"      .               ",
"                .     ",
"                      ",
"                      ",
"                      ",
"                      "};
