/* XPM */
static char * downarrow_xpm[] = {
"15 9 17 1",
" 	g None",
".	g #333333",
"+	g #D0D0D0",
"@	g #CDCDCD",
"#	g #CACACA",
"$	g #C7C7C7",
"%	g #C1C1C1",
"&	g #B8B8B8",
"*	g #ADADAD",
"=	g #A2A2A2",
"-	g #949494",
";	g #808080",
">	g #767676",
",	g #6C6C6C",
"'	g #636363",
")	g #595959",
"!	g #4F4F4F",
" ............. ",
".+++++@#$%&*=-.",
".;;;;;;;;;;;;;.",
" .>>>>>>>>>>>. ",
"  .,,,,,,,,,.  ",
"   .'''''''.   ",
"    .))))).    ",
"     .!!!.     ",
"      ...      "};
