/* XPM */
static char * eye_closed_53x35_xpm[] = {
"52 27 2 1",
" 	c None",
".	c #000000",
"                                                    ",
"                                                    ",
"                                                    ",
"                                                    ",
"                                                    ",
"                                                    ",
"                                               ...  ",
"                                             .....  ",
"...                                          ...... ",
".....                                        .....  ",
"........                                   .......  ",
"...........                             ........    ",
"............                         .............  ",
" ................             .................     ",
"   ....................      .......................",
"    ..........................................      ",
"     .. ................................... ..      ",
"    ..     ..........................  .....        ",
"    ..    ... ..................... ..  .. .        ",
"    ..    ..  ... ............. ... ..   ..         ",
"   ...   ..   ..   ... ...  ..   ... .   ..         ",
"   .     ..   ..   ..  ..   ..    .. .              ",
"        ..    ..   ..  ..   ..     .  .             ",
"        ..    ..   ..  ..   ..     .                ",
"              ..   ..  .    .      .                ",
"             ...   ..                               ",
"             ..                                     "};
