/* XPM */
static char * faultpen_xpm[] = {
"22 22 71 1",
" 	c None",
".	c #8F8F8F",
"+	c #000000",
"@	c #FFFFFF",
"#	c #DCDCDC",
"$	c #A0A0A0",
"%	c #6F6F6F",
"&	c #858585",
"*	c #4C4C4C",
"=	c #4E4E4E",
"-	c #5D5D5D",
";	c #363636",
">	c #383838",
",	c #3C3C3C",
"'	c #5A5A5A",
")	c #2C2C2C",
"!	c #323232",
"~	c #3B3B3B",
"{	c #616161",
"]	c #404040",
"^	c #353535",
"/	c #303030",
"(	c #3E3E3E",
"_	c #888888",
":	c #666666",
"<	c #6E6E6E",
"[	c #434343",
"}	c #424242",
"|	c #2F2F2F",
"1	c #4B4B4B",
"2	c #444444",
"3	c #4A4A4A",
"4	c #5B5B5B",
"5	c #515151",
"6	c #5F5F5F",
"7	c #555555",
"8	c #474747",
"9	c #333333",
"0	c #585858",
"a	c #5C5C5C",
"b	c #6C6C6C",
"c	c #484848",
"d	c #393939",
"e	c #3A3A3A",
"f	c #343434",
"g	c #373737",
"h	c #313131",
"i	c #6D6D6D",
"j	c #707070",
"k	c #414141",
"l	c #3D3D3D",
"m	c #454545",
"n	c #3F3F3F",
"o	c #2E2E2E",
"p	c #595959",
"q	c #4F4F4F",
"r	c #646464",
"s	c #525252",
"t	c #787878",
"u	c #6A6A6A",
"v	c #686868",
"w	c #464646",
"x	c #535353",
"y	c #717171",
"z	c #5E5E5E",
"A	c #626262",
"B	c #505050",
"C	c #676767",
"D	c #494949",
"E	c #737373",
"F	c #565656",
"..........+@@##+$$....",
"..........+@##++$.....",
"..........++##+$$.....",
"..........+++++$......",
"..........++++$$......",
"..........+++$$.......",
"%&........++$$........",
"*=-.......+$$.........",
";>,'.......$..........",
";)!~{.................",
"]^!/({_:<.............",
"[}^||1:23456..........",
"{789|,0>^(][a.........",
"..bc!d3ef^gh(=bibj....",
"...%klmn,d>ooep*q8{_..",
"....r3s=23n;||1e~f}q-t",
".....uvrp-*m>/k>9o;dwx",
"..........yz3g}]>!g9,~",
"............A*Bq8d~de,",
".............iCA{D}k}8",
".................E'*qF",
"...................y:r"};
