/* XPM */
static char * fft_block_filter4_xpm[] = {
"22 22 3 1",
" 	c None",
".	c #FFFFFF",
"+	c #000000",
"......................",
"......................",
"......................",
"...++++++++++++++++...",
"...++++++++++++++++...",
"...++++++++++++++++...",
"...+++..........+++...",
"...+++..........+++...",
"...+++..........+++...",
"...+++..........+++...",
"...+++..........+++...",
"...+++..........+++...",
"...+++..........+++...",
"...+++..........+++...",
"...+++..........+++...",
"...+++..........+++...",
"...++++++++++++++++...",
"...++++++++++++++++...",
"...++++++++++++++++...",
"......................",
"......................",
"......................"};
