/* XPM */
static char * fft_gauss_filter1_xpm[] = {
"22 22 53 1",
" 	c None",
".	c #000000",
"+	c #060606",
"@	c #0D0D0D",
"#	c #131313",
"$	c #171717",
"%	c #181818",
"&	c #050505",
"*	c #111111",
"=	c #1B1B1B",
"-	c #242424",
";	c #2A2A2A",
">	c #2E2E2E",
",	c #2F2F2F",
"'	c #090909",
")	c #252525",
"!	c #303030",
"~	c #393939",
"{	c #404040",
"]	c #454545",
"^	c #464646",
"/	c #1A1A1A",
"(	c #383838",
"_	c #4F4F4F",
":	c #575757",
"<	c #5C5C5C",
"[	c #5D5D5D",
"}	c #3B3B3B",
"|	c #4A4A4A",
"1	c #585858",
"2	c #646464",
"3	c #6D6D6D",
"4	c #727272",
"5	c #747474",
"6	c #6B6B6B",
"7	c #787878",
"8	c #838383",
"9	c #898989",
"0	c #8C8C8C",
"a	c #7C7C7C",
"b	c #989898",
"c	c #A0A0A0",
"d	c #A3A3A3",
"e	c #9D9D9D",
"f	c #ACACAC",
"g	c #B6B6B6",
"h	c #BABABA",
"i	c #BEBEBE",
"j	c #CCCCCC",
"k	c #D1D1D1",
"l	c #DFDFDF",
"m	c #E8E8E8",
"n	c #FFFFFF",
"......................",
".......+@#$%$#@+......",
".....&*=-;>,>;-=*&....",
"....'%)!~{]^]{~!)%'...",
"...'/;(]_:<[<:_](;/'..",
"..&%;}|123454321|};%&.",
"..*)(|<678909876<|()*.",
".+=!]16a0bcdcb0a61]!=+",
".@-~_270efghgfe072_~-@",
".#;{:38bfijkjifb83:{;#",
".$>]<49cgjlmljgc94<]>$",
".%,^[50dhkmnmkhd05[^,%",
".$>]<49cgjlmljgc94<]>$",
".#;{:38bfijkjifb83:{;#",
".@-~_270efghgfe072_~-@",
".+=!]16a0bcdcb0a61]!=+",
"..*)(|<678909876<|()*.",
"..&%;}|123454321|};%&.",
"...'/;(]_:<[<:_](;/'..",
"....'%)!~{]^]{~!)%'...",
".....&*=-;>,>;-=*&....",
".......+@#$%$#@+......"};
