/* XPM */
static char * fft_g_filter3_xpm[] = {
"22 22 75 1",
" 	c None",
".	c #0B0B0B",
"+	c #0C0C0C",
"@	c #0E0E0E",
"#	c #111111",
"$	c #141414",
"%	c #171717",
"&	c #181818",
"*	c #1A1A1A",
"=	c #212121",
"-	c #282828",
";	c #2D2D2D",
">	c #2E2E2E",
",	c #0F0F0F",
"'	c #222222",
")	c #2F2F2F",
"!	c #3B3B3B",
"~	c #464646",
"{	c #4E4E4E",
"]	c #4F4F4F",
"^	c #101010",
"/	c #FF0000",
"(	c #383838",
"_	c #4C4C4C",
":	c #5E5E5E",
"<	c #6E6E6E",
"[	c #797979",
"}	c #7B7B7B",
"|	c #707070",
"1	c #898989",
"2	c #969696",
"3	c #A0A0A0",
"4	c #A3A3A3",
"5	c #A1A1A1",
"6	c #9A9A9A",
"7	c #8B8B8B",
"8	c #131313",
"9	c #939393",
"0	c #9E9E9E",
"a	c #A7A7A7",
"b	c #A9A9A9",
"c	c #9C9C9C",
"d	c #7D7D7D",
"e	c #808080",
"f	c #A5A5A5",
"g	c #989898",
"h	c #121212",
"i	c #868686",
"j	c #585858",
"k	c #434343",
"l	c #151515",
"m	c #6C6C6C",
"n	c #8D8D8D",
"o	c #515151",
"p	c #1F1F1F",
"q	c #1C1C1C",
"r	c #242424",
"s	c #3E3E3E",
"t	c #161616",
"u	c #777777",
"v	c #919191",
"w	c #262626",
"x	c #8F8F8F",
"y	c #343434",
"z	c #191919",
"A	c #202020",
"B	c #404040",
"C	c #292929",
"D	c #363636",
"E	c #ABABAB",
"F	c #686868",
"G	c #ACACAC",
"H	c #727272",
"I	c #565656",
"J	c #3D3D3D",
".........+++++........",
"......+@#$%&%$#@+.....",
".....@$*=-;>;-=*$@....",
"...+,&')!~{]{~!)'&,+..",
"...^*/(_:<[}[<:_/-*^..",
"..@&///|1234567///-&@.",
".+8'///90054aba///('8+",
".@*//|/5c1de7cf/g//)*,",
".h=/:i/6dj~k]<9/a7/!=h",
"+l//mn//o>pqrs//bg//-t",
"+%/{uv9/!qh^lw/xf3[/;*",
"+&/][22/yz^@hA/if5}/>*",
"+%/{u9g/BA$#tC/va3[/;*",
"+//~mxc//DrAC//3Eg<//t",
"./=!:i03/Fo_j/6Eb7:!/h",
"./*)_|2f//xx//EGgH_)/,",
"//8'(I[25////bag[I('//",
"..@&-JIH1g//567HIJ-&@.",
"...^*-(_:<[d[<:_(-*^..",
"...+,&')!~{]{~!)'&,+..",
".....@$*=-;>;-=*$@....",
"......+,ht***th,+....."};
