/* XPM */
static char * fft_block_filter1_xpm[] = {
"22 22 2 1",
" 	c #000000",
".	c #FFFFFF",
"                      ",
"                      ",
"                      ",
"                      ",
"                      ",
"                      ",
"      ..........      ",
"      ..........      ",
"      ..........      ",
"      ..........      ",
"      ..........      ",
"      ..........      ",
"      ..........      ",
"      ..........      ",
"      ..........      ",
"      ..........      ",
"                      ",
"                      ",
"                      ",
"                      ",
"                      ",
"                      "};
