/* XPM */
static char * fft_g_filter4_xpm[] = {
"22 22 74 1",
" 	c None",
".	c #F4F4F4",
"+	c #F3F3F3",
"@	c #F1F1F1",
"#	c #EEEEEE",
"$	c #EBEBEB",
"%	c #E8E8E8",
"&	c #E7E7E7",
"*	c #E5E5E5",
"=	c #DEDEDE",
"-	c #D7D7D7",
";	c #D2D2D2",
">	c #D1D1D1",
",	c #F0F0F0",
"'	c #DDDDDD",
")	c #D0D0D0",
"!	c #C4C4C4",
"~	c #B9B9B9",
"{	c #B1B1B1",
"]	c #B0B0B0",
"^	c #EFEFEF",
"/	c #C7C7C7",
"(	c #B3B3B3",
"_	c #A1A1A1",
":	c #919191",
"<	c #FF0000",
"[	c #868686",
"}	c #C2C2C2",
"|	c #A9A9A9",
"1	c #8F8F8F",
"2	c #767676",
"3	c #656565",
"4	c #747474",
"5	c #8D8D8D",
"6	c #ECECEC",
"7	c #6C6C6C",
"8	c #5E5E5E",
"9	c #5C5C5C",
"0	c #585858",
"a	c #676767",
"b	c #828282",
"c	c #7F7F7F",
"d	c #5A5A5A",
"e	c #545454",
"f	c #797979",
"g	c #636363",
"h	c #A7A7A7",
"i	c #BCBCBC",
"j	c #565656",
"k	c #EDEDED",
"l	c #EAEAEA",
"m	c #939393",
"n	c #727272",
"o	c #AEAEAE",
"p	c #E0E0E0",
"q	c #E3E3E3",
"r	c #DBDBDB",
"s	c #C1C1C1",
"t	c #616161",
"u	c #E9E9E9",
"v	c #888888",
"w	c #6E6E6E",
"x	c #D9D9D9",
"y	c #707070",
"z	c #5F5F5F",
"A	c #696969",
"B	c #CBCBCB",
"C	c #E6E6E6",
"D	c #DFDFDF",
"E	c #848484",
"F	c #BFBFBF",
"G	c #D6D6D6",
"H	c #C9C9C9",
"I	c #979797",
".........+++++........",
"......+@#$%&%$#@+.....",
".....@$*=-;>;-=*$@....",
"...+,&')!~{]{~!)'&,+..",
"...^*-/(_:<<[:_(/-*^..",
"<<@&-}|12<<<<345|}-&<<",
".<6'/|[7<<89<<0a[|/'<+",
".<*)(178<2bc4<dea5()<,",
".<<!_fg<<h~i]<<j04_<<k",
"+l<~mn7<o>pqrs<tja:<-u",
"+%<{vw7<!qk^lx<ydz[<;*",
"+&<][AA<BC^@kD<fd8E<>*",
"+%<<v7<<FD$#uG<<0z<<;*",
"+l-<my<2_HrDGi5<ea<~-u",
".k=<<f<z4Io(hv3<j<<!=k",
".@*)<<<ddayy78e<<<()*,",
".+6'<<<A88dj0j0<<</'6+",
"..@&-<|52a8d8345<}-&@.",
"...^*-/(_:[b[:_(/-*^..",
"...+,&')!~{]{~!)'&,+..",
".....@$*=-;>;-=*$@....",
"......+,ku***uk,+....."};
