/* XPM */
static char * fft_g_filter1_xpm[] = {
"22 22 54 1",
" 	c None",
".	c #000000",
"+	c #060606",
"@	c #0D0D0D",
"#	c #131313",
"$	c #171717",
"%	c #181818",
"&	c #050505",
"*	c #111111",
"=	c #FF0000",
"-	c #1B1B1B",
";	c #090909",
">	c #252525",
",	c #1A1A1A",
"'	c #454545",
")	c #4F4F4F",
"!	c #575757",
"~	c #5C5C5C",
"{	c #5D5D5D",
"]	c #2A2A2A",
"^	c #4A4A4A",
"/	c #585858",
"(	c #646464",
"_	c #6D6D6D",
":	c #727272",
"<	c #747474",
"[	c #6B6B6B",
"}	c #787878",
"|	c #838383",
"1	c #898989",
"2	c #8C8C8C",
"3	c #383838",
"4	c #303030",
"5	c #7C7C7C",
"6	c #989898",
"7	c #A0A0A0",
"8	c #A3A3A3",
"9	c #242424",
"0	c #9D9D9D",
"a	c #ACACAC",
"b	c #B6B6B6",
"c	c #BABABA",
"d	c #393939",
"e	c #BEBEBE",
"f	c #CCCCCC",
"g	c #D1D1D1",
"h	c #404040",
"i	c #2E2E2E",
"j	c #DFDFDF",
"k	c #E8E8E8",
"l	c #2F2F2F",
"m	c #FFFFFF",
"n	c #464646",
"o	c #3B3B3B",
"......................",
".......+@#$%$#@+......",
".....&*========-*&....",
"....;%==========>%;...",
"...;,==')!~{~!)==],;..",
"..&%==^/(_:<:_(/==]%&.",
"..*>==~[}|121|}[==3>*.",
".+-4=/[526787625[='4-+",
".@9==(}20abcba02}=)d9@",
".#]==_|6aefgfea6|==h]#",
".$i=~:17bfjkjfb71=='i$",
".%l={<28cgkmkgc82<=nl%",
".$==~:17bfjkjfb71:='i$",
".#==!_|6aefgfea6|_==]#",
".@=d)(}20abcba02}(==9@",
".+=4'/[526787625[/'=-+",
".==>3^~[}|121|}[~^3==.",
".==%]o^/(_:<:_(/^o]==.",
".=.;,]3')!~{~!)'3],==.",
"==..;%>4dh'n'hd4>%;.==",
"=....&*-9]ili]9-*&...=",
".......+@#$%$#@+......"};
