/* XPM */
static char * fft_gauss_filter3_xpm[] = {
"22 22 77 1",
" 	c None",
".	c #0B0B0B",
"+	c #0C0C0C",
"@	c #0E0E0E",
"#	c #111111",
"$	c #141414",
"%	c #171717",
"&	c #181818",
"*	c #1A1A1A",
"=	c #212121",
"-	c #282828",
";	c #2D2D2D",
">	c #2E2E2E",
",	c #0F0F0F",
"'	c #222222",
")	c #2F2F2F",
"!	c #3B3B3B",
"~	c #464646",
"{	c #4E4E4E",
"]	c #4F4F4F",
"^	c #101010",
"/	c #383838",
"(	c #4C4C4C",
"_	c #5E5E5E",
":	c #6E6E6E",
"<	c #797979",
"[	c #7B7B7B",
"}	c #3D3D3D",
"|	c #565656",
"1	c #707070",
"2	c #898989",
"3	c #969696",
"4	c #A0A0A0",
"5	c #A3A3A3",
"6	c #A1A1A1",
"7	c #9A9A9A",
"8	c #8B8B8B",
"9	c #727272",
"0	c #131313",
"a	c #939393",
"b	c #9E9E9E",
"c	c #A7A7A7",
"d	c #A9A9A9",
"e	c #989898",
"f	c #9C9C9C",
"g	c #7D7D7D",
"h	c #808080",
"i	c #A5A5A5",
"j	c #ABABAB",
"k	c #121212",
"l	c #868686",
"m	c #585858",
"n	c #434343",
"o	c #151515",
"p	c #6C6C6C",
"q	c #8D8D8D",
"r	c #515151",
"s	c #1F1F1F",
"t	c #1C1C1C",
"u	c #242424",
"v	c #3E3E3E",
"w	c #161616",
"x	c #777777",
"y	c #919191",
"z	c #262626",
"A	c #535353",
"B	c #8F8F8F",
"C	c #343434",
"D	c #191919",
"E	c #202020",
"F	c #474747",
"G	c #404040",
"H	c #292929",
"I	c #555555",
"J	c #363636",
"K	c #686868",
"L	c #ACACAC",
".........+++++........",
"......+@#$%&%$#@+.....",
".....@$*=-;>;-=*$@....",
"...+,&')!~{]{~!)'&,+..",
"...^*-/(_:<[<:_(/-*^..",
"..@&-}|123456789|}-&@.",
".+0'/|<abb65cdce<|/'0+",
".@*)(1a6f2gh8fije9()*,",
".k=!_lf7gm~n]:adc8_!=k",
"+o-~pqahr>stuv:bde:~-w",
"+%;{xya1!tk^ozABi4<{;*",
"+&>]<33pCD^@kEFli6[]>*",
"+%;{xae<GE$#wHIyc4<{;*",
"+o-~pBf2_JuEHn94je:~-w",
".k=!_lb48Kr(mx7jd8_!=k",
".@*)(13iieBBa6jLe9()*,",
".+0'/|<366idcdce<|/'0+",
"..@&-}|92e6i6789|}-&@.",
"...^*-/(_:<g<:_(/-*^..",
"...+,&')!~{]{~!)'&,+..",
".....@$*=-;>;-=*$@....",
"......+,kw***wk,+....."};
