/* XPM */
static char * fft_g_filter2_xpm[] = {
"22 22 54 1",
" 	c None",
".	c #FFFFFF",
"+	c #F9F9F9",
"@	c #F2F2F2",
"#	c #ECECEC",
"$	c #E8E8E8",
"%	c #E7E7E7",
"&	c #FF0000",
"*	c #FAFAFA",
"=	c #EEEEEE",
"-	c #E4E4E4",
";	c #DBDBDB",
">	c #D5D5D5",
",	c #D1D1D1",
"'	c #D0D0D0",
")	c #F6F6F6",
"!	c #DADADA",
"~	c #CFCFCF",
"{	c #C6C6C6",
"]	c #BFBFBF",
"^	c #BABABA",
"/	c #B9B9B9",
"(	c #E5E5E5",
"_	c #C7C7C7",
":	c #B0B0B0",
"<	c #A8A8A8",
"[	c #A3A3A3",
"}	c #A2A2A2",
"|	c #C4C4C4",
"1	c #B5B5B5",
"2	c #A7A7A7",
"3	c #9B9B9B",
"4	c #929292",
"5	c #8D8D8D",
"6	c #8B8B8B",
"7	c #949494",
"8	c #878787",
"9	c #7C7C7C",
"0	c #767676",
"a	c #737373",
"b	c #838383",
"c	c #676767",
"d	c #5F5F5F",
"e	c #5C5C5C",
"f	c #626262",
"g	c #535353",
"h	c #494949",
"i	c #454545",
"j	c #414141",
"k	c #333333",
"l	c #2E2E2E",
"m	c #202020",
"n	c #171717",
"o	c #000000",
"......................",
".......+@#$%$#@+......",
"&....*=-;>,',>;-=*...&",
"&&..)%!~{]^/^]{~!%).&&",
".&.)(>_^:<[}[<:^_>(&&.",
".&&%>|12345654321|>&&.",
".&&!_1[7890a0987[1_&&.",
".+&~^27bacdedcab72^&-+",
".@&{:38afghihgfa83&&;@",
".#&&<49cgjklkjgc94&&>#",
".$&&[50dhkmnmkhd05&^,$",
".%'&}6aeilnonliea6&/'%",
".$,&[50dhkmnmkhd0&&^,$",
".#>&&49cgjklkjgc9&&]>#",
".@;&&38afghihgfa8&:{;@",
".+-~&27bacdedcab7&^~-+",
"..=!&&[7890a0987&&_!=.",
"..*%&&1234565432&&>%*.",
"...)(&&^:<[}[<:&&>()..",
"....)%&&&&&&&&&&!%)...",
".....*=&&&&&&&&-=*....",
".......+@#$%$#@+......"};
