/* XPM */
static char * fft_block_filter2r_xpm[] = {
"22 22 3 1",
" 	c None",
".	c #FFFFFF",
"+	c #FF0101",
"......................",
"......................",
"......................",
"......................",
"......................",
"......................",
"......++++++++++......",
"......++++++++++......",
"......++++++++++......",
"......++++++++++......",
"......++++++++++......",
"......++++++++++......",
"......++++++++++......",
"......++++++++++......",
"......++++++++++......",
"......++++++++++......",
"......................",
"......................",
"......................",
"......................",
"......................",
"......................"};
