/* XPM */
static char * fft_block_filter2_xpm[] = {
"22 22 2 1",
" 	c #FFFFFF",
".	c #000000",
"                      ",
"                      ",
"                      ",
"                      ",
"                      ",
"                      ",
"      ..........      ",
"      ..........      ",
"      ..........      ",
"      ..........      ",
"      ..........      ",
"      ..........      ",
"      ..........      ",
"      ..........      ",
"      ..........      ",
"      ..........      ",
"                      ",
"                      ",
"                      ",
"                      ",
"                      ",
"                      "};
