/* XPM */
static char * filt_hf_xpm[] = {
"22 22 80 1",
" 	c None",
".	c #000000",
"+	c #FFFFFF",
"@	c #FC0202",
"#	c #EFEFEF",
"$	c #F6F6F6",
"%	c #E1E1E1",
"&	c #F9F9F9",
"*	c #F3F3F3",
"=	c #F8F8F8",
"-	c #BCBCBC",
";	c #8E8E8E",
">	c #C5C5C5",
",	c #484848",
"'	c #A1A1A1",
")	c #9D9D9D",
"!	c #3D3D3D",
"~	c #B0B0B0",
"{	c #828282",
"]	c #505050",
"^	c #909090",
"/	c #4E4E4E",
"(	c #898989",
"_	c #919191",
":	c #D4D4D4",
"<	c #F5F5F5",
"[	c #D6D6D6",
"}	c #202020",
"|	c #777777",
"1	c #282828",
"2	c #4F4F4F",
"3	c #7E7E7E",
"4	c #666666",
"5	c #5D5D5D",
"6	c #7C7C7C",
"7	c #808080",
"8	c #858585",
"9	c #929292",
"0	c #5B5B5B",
"a	c #9B9B9B",
"b	c #DADADA",
"c	c #E5E5E5",
"d	c #BBBBBB",
"e	c #6C6C6C",
"f	c #595959",
"g	c #9F9F9F",
"h	c #3E3E3E",
"i	c #969696",
"j	c #434343",
"k	c #474747",
"l	c #747474",
"m	c #323232",
"n	c #242424",
"o	c #272727",
"p	c #2A2A2A",
"q	c #383838",
"r	c #292929",
"s	c #2E2E2E",
"t	c #232323",
"u	c #222222",
"v	c #2B2B2B",
"w	c #3C3C3C",
"x	c #2F2F2F",
"y	c #343434",
"z	c #363636",
"A	c #333333",
"B	c #313131",
"C	c #252525",
"D	c #3B3B3B",
"E	c #2C2C2C",
"F	c #2D2D2D",
"G	c #353535",
"H	c #404040",
"I	c #303030",
"J	c #262626",
"K	c #3A3A3A",
"L	c #373737",
"M	c #393939",
"N	c #3F3F3F",
"O	c #212121",
"                      ",
"                      ",
"      .               ",
"     .+.       .      ",
"    .+++.     .+.     ",
"   .+++++.@@ .+++.    ",
"  .#$%&*=@@@@+++++.   ",
" .-;>,')@@-.@@+++++.  ",
".!~{]^/(@_:+@@&<=[++. ",
"}|1234}56}78@@90^abcd.",
"}}})e}}}f7}@@ghij1k]l+",
"mno}}}}}}}}@@}}}}}}}}}",
"pqr}s}}}}}@@}}}tpuv}}}",
"wxuypnztuv@@Ao}BrCDEFC",
"xxGHFIxJtCKE1D1uLpmr}z",
"!!KBpD1wzn@@pKhoDshvuq",
"HzCMHIxHGK@@zIMmI!HhEH",
"HsKHH!NHHHHHHh!H!NHxsB",
"HHHHHHyqGmDHHHHHHHHHHH",
"1qrGhAux1}CM11yEp1mhrL",
"JyOmn}uyC}}LE}}Byn1yBn",
"}}}CO}}}}}}tt}}}}}}}tt"};
