/* XPM */
static char * fleur_xpm[] = {
"48 48 359 2",
"  	c None",
". 	c #000000",
"+ 	c #737A77",
"@ 	c #DEEDE7",
"# 	c #D9E7E2",
"$ 	c #1B1D1C",
"% 	c #B8C3BF",
"& 	c #EEFDF7",
"* 	c #DEECE6",
"= 	c #DFEDE7",
"- 	c #C6D1CC",
"; 	c #DCEAE4",
"> 	c #CEDCD7",
", 	c #464B49",
"' 	c #CCD9D4",
") 	c #96A09C",
"! 	c #E4F3ED",
"~ 	c #D0DED9",
"{ 	c #ADB7B3",
"] 	c #ECFBF5",
"^ 	c #EBFAF4",
"/ 	c #E1F0EA",
"( 	c #D5E3DD",
"_ 	c #A7B0AC",
": 	c #040404",
"< 	c #131414",
"[ 	c #161817",
"} 	c #131514",
"| 	c #1F2120",
"1 	c #151716",
"2 	c #3B3F3F",
"3 	c #181A19",
"4 	c #101211",
"5 	c #E0EEE8",
"6 	c #99A29E",
"7 	c #656C69",
"8 	c #545A58",
"9 	c #909895",
"0 	c #DDEBE5",
"a 	c #E5F4EE",
"b 	c #4A4F4D",
"c 	c #272A28",
"d 	c #7D8481",
"e 	c #B6C2BD",
"f 	c #CFDCD6",
"g 	c #D0DDD8",
"h 	c #C9D5D1",
"i 	c #E3F1EB",
"j 	c #D6E4DF",
"k 	c #D3E1DB",
"l 	c #D2DED9",
"m 	c #A7B3AE",
"n 	c #7C8581",
"o 	c #2C302F",
"p 	c #252826",
"q 	c #686E6C",
"r 	c #221C13",
"s 	c #3F392D",
"t 	c #C0A16C",
"u 	c #DCB676",
"v 	c #706144",
"w 	c #111212",
"x 	c #444846",
"y 	c #D8E6E0",
"z 	c #E8F7F1",
"A 	c #E9F8F2",
"B 	c #DAE8E2",
"C 	c #DBE9E3",
"D 	c #C9D7D2",
"E 	c #D2E0DA",
"F 	c #E9F7F1",
"G 	c #E2F0EA",
"H 	c #E5F2EC",
"I 	c #DBEAE4",
"J 	c #C3D1CB",
"K 	c #1D201F",
"L 	c #897042",
"M 	c #FAD372",
"N 	c #FAE286",
"O 	c #F9E389",
"P 	c #F9E48A",
"Q 	c #F7CC72",
"R 	c #F4C776",
"S 	c #776F59",
"T 	c #C8D5CF",
"U 	c #D2DFDA",
"V 	c #C6D3CE",
"W 	c #D7E5DF",
"X 	c #CCDAD4",
"Y 	c #B5C1BC",
"Z 	c #A4AFAA",
"` 	c #9BA5A1",
" .	c #DBE9E4",
"..	c #E7F6F0",
"+.	c #323534",
"@.	c #7B6B4B",
"#.	c #F9D476",
"$.	c #FAE68C",
"%.	c #FAE78D",
"&.	c #FAD979",
"*.	c #FBC75C",
"=.	c #CBA358",
"-.	c #6E644E",
";.	c #3C403F",
">.	c #BCC8C3",
",.	c #C8D5D0",
"'.	c #C1CDC8",
").	c #B2BDB9",
"!.	c #ABB6B1",
"~.	c #B7C3BE",
"{.	c #AAB6B0",
"].	c #A7B1AC",
"^.	c #97A19E",
"/.	c #222423",
"(.	c #3D413F",
"_.	c #D4E1DC",
":.	c #E4F2EC",
"<.	c #5D6361",
"[.	c #655840",
"}.	c #F7D37D",
"|.	c #FAE184",
"1.	c #FAC75C",
"2.	c #FAC75E",
"3.	c #D4AA61",
"4.	c #A38453",
"5.	c #1F1F1C",
"6.	c #B9C3BF",
"7.	c #B4BFBB",
"8.	c #BDC8C3",
"9.	c #B4C1BC",
"0.	c #A8B3AE",
"a.	c #ABB7B2",
"b.	c #9DA8A4",
"c.	c #858D88",
"d.	c #171918",
"e.	c #78807D",
"f.	c #E8F6F0",
"g.	c #343531",
"h.	c #F4C77F",
"i.	c #FAE58A",
"j.	c #FAD16C",
"k.	c #F2C36D",
"l.	c #BA975E",
"m.	c #886E44",
"n.	c #574A30",
"o.	c #828A86",
"p.	c #97A19C",
"q.	c #828B88",
"r.	c #9AA4A0",
"s.	c #7E8884",
"t.	c #858E8A",
"u.	c #626765",
"v.	c #030303",
"w.	c #0A0B0A",
"x.	c #828A87",
"y.	c #626662",
"z.	c #F6CC77",
"A.	c #FAD775",
"B.	c #F2BF58",
"C.	c #C39C4F",
"D.	c #9E8050",
"E.	c #655133",
"F.	c #433621",
"G.	c #676D6B",
"H.	c #848E89",
"I.	c #919B97",
"J.	c #767D7A",
"K.	c #212222",
"L.	c #4E5351",
"M.	c #B1A57F",
"N.	c #F1DC85",
"O.	c #F9E58B",
"P.	c #F6C761",
"Q.	c #DFB151",
"R.	c #BF984A",
"S.	c #A3834B",
"T.	c #685434",
"U.	c #56462C",
"V.	c #262118",
"W.	c #59625F",
"X.	c #464947",
"Y.	c #4D514F",
"Z.	c #222524",
"`.	c #7E8683",
" +	c #EDFCF6",
".+	c #9EA8A5",
"++	c #817350",
"@+	c #CEBD72",
"#+	c #D4C376",
"$+	c #CEB263",
"%+	c #B69142",
"&+	c #AD883F",
"*+	c #977944",
"=+	c #705A38",
"-+	c #433622",
";+	c #54452B",
">+	c #4B504E",
",+	c #060707",
"'+	c #C7D4CF",
")+	c #959F9C",
"!+	c #050605",
"~+	c #332E22",
"{+	c #796741",
"]+	c #89703E",
"^+	c #735D34",
"/+	c #6A5533",
"(+	c #614F31",
"_+	c #5C4B2F",
":+	c #343632",
"<+	c #7F8784",
"[+	c #474B49",
"}+	c #010101",
"|+	c #E4F2ED",
"1+	c #A6B1AC",
"2+	c #484E4B",
"3+	c #141514",
"4+	c #53452D",
"5+	c #56482F",
"6+	c #3C3830",
"7+	c #505754",
"8+	c #777E7B",
"9+	c #79807E",
"0+	c #79827D",
"a+	c #747C79",
"b+	c #7D8682",
"c+	c #838B88",
"d+	c #464C4A",
"e+	c #030404",
"f+	c #2A2D2B",
"g+	c #E0EEE9",
"h+	c #E2F1EB",
"i+	c #E7F5F0",
"j+	c #A9B4AF",
"k+	c #9FAAA6",
"l+	c #919A97",
"m+	c #9DA7A2",
"n+	c #7C8381",
"o+	c #808985",
"p+	c #8C9592",
"q+	c #8A938F",
"r+	c #8D9693",
"s+	c #A6B1AD",
"t+	c #505653",
"u+	c #5C615F",
"v+	c #C1CEC8",
"w+	c #69706E",
"x+	c #EBF9F3",
"y+	c #E3F2EC",
"z+	c #E0EFE9",
"A+	c #C3CFC9",
"B+	c #B0BBB8",
"C+	c #9FAAA5",
"D+	c #A2ABA7",
"E+	c #ACB6B2",
"F+	c #A5B0AC",
"G+	c #B2BEB9",
"H+	c #A8B4AF",
"I+	c #99A39E",
"J+	c #A2ACA7",
"K+	c #707974",
"L+	c #181919",
"M+	c #EDFBF6",
"N+	c #E7F5EF",
"O+	c #DCEBE5",
"P+	c #DAE9E3",
"Q+	c #B1BDB8",
"R+	c #C2CFC9",
"S+	c #404543",
"T+	c #A8B3AF",
"U+	c #494E4C",
"V+	c #949F9A",
"W+	c #BCC9C4",
"X+	c #BECAC4",
"Y+	c #BBC6C1",
"Z+	c #BBC7C2",
"`+	c #B9C5C1",
" @	c #BDCAC4",
".@	c #B3BFB9",
"+@	c #C2D0CA",
"@@	c #ACB7B3",
"#@	c #959F9B",
"$@	c #525755",
"%@	c #E6F5EF",
"&@	c #C4D0CC",
"*@	c #B0BBB6",
"=@	c #BAC6C1",
"-@	c #B6C1BC",
";@	c #A9B4B0",
">@	c #181817",
",@	c #CDDAD5",
"'@	c #D1DED9",
")@	c #CDDAD4",
"!@	c #2E3030",
"~@	c #C8D4CF",
"{@	c #C9D7D1",
"]@	c #CAD7D3",
"^@	c #B0BBB7",
"/@	c #ACB7B1",
"(@	c #C5D2CC",
"_@	c #BAC6C2",
":@	c #9DA8A5",
"<@	c #282B2A",
"[@	c #0F1010",
"}@	c #C4D1CB",
"|@	c #D4E2DD",
"1@	c #A7B2AE",
"2@	c #232625",
"3@	c #393C3B",
"4@	c #AFBAB6",
"5@	c #D3E1DC",
"6@	c #CDDBD5",
"7@	c #BAC7C3",
"8@	c #C5D2CD",
"9@	c #BEC9C4",
"0@	c #7C8481",
"a@	c #0E100F",
"b@	c #353937",
"c@	c #2F3231",
"d@	c #0E0F0F",
"e@	c #020202",
"f@	c #D8E5E0",
"g@	c #D0DED8",
"h@	c #B1BCB7",
"i@	c #484D4B",
"j@	c #111312",
"k@	c #9DA8A3",
"l@	c #D8E7E1",
"m@	c #C6D4CE",
"n@	c #B8C4BE",
"o@	c #ADB9B4",
"p@	c #1E2120",
"q@	c #EBF8F4",
"r@	c #D9E7E1",
"s@	c #C2CEC9",
"t@	c #A7B1AD",
"u@	c #232424",
"v@	c #7D8582",
"w@	c #525855",
"x@	c #0B0C0C",
"y@	c #CFDDD7",
"z@	c #99A39F",
"A@	c #555A58",
"B@	c #D7E4DE",
"C@	c #CEDBD6",
"D@	c #D5E3DE",
"E@	c #939C98",
"F@	c #4C514F",
"G@	c #535855",
"H@	c #C0CDC8",
"I@	c #A1ABA7",
"J@	c #282928",
"K@	c #A3AEA9",
"L@	c #050505",
"M@	c #D1DFDA",
"N@	c #C4D0CB",
"O@	c #9BA4A1",
"P@	c #4C524F",
"Q@	c #141515",
"R@	c #070707",
"                                                                                                ",
"                                                                                                ",
"                                                                                                ",
"                                                                                                ",
"                                                                                                ",
"                                                                                                ",
"                                                                                                ",
"                                                                                                ",
"                                                    . . .                                       ",
"                                                . . + @ # $ .                                   ",
"                                              . . % & * = - .                                   ",
"                                            .     & & ; = > , .                                 ",
"                                            .   & & & ; = ' ) .                                 ",
"                                          .   & & & & ! ; ~ { .                                 ",
"                                          . ] & & & & ^ / ( _ . . . : < [ } . . .               ",
"                    . | 1 2 3 4 . .         & 5 6 7 8 9 0 a b c d e & & / @ f g h               ",
"                  .   i a j k l m n o p .   q r s t u v w x y & ^ z & & A B C D E >             ",
"                      & & & ] F G H 0 I J K L M N O P Q R S 3 T U V W ; @ X E > Y Z .           ",
"                      `  ...& & & & & ^ +.@.#.$.%.%.%.&.*.=.-.;.>.,.'.).!.~.{.].^./..           ",
"                      . (._.:.& & & & <.[.}.$.%.%.%.|.1.2.3.4.5.6.7.8.9.0.a.b.c.d..             ",
"                          . e.f.& & & g.h.i.%.%.%.%.j.*.k.l.m.n.o.p.q.r.s.t.u.v.. .             ",
"                              w.x.a & y.z.$.%.%.%.A.1.B.C.D.E.F.G.H.n I.J.1 . .                 ",
"                                  K.7.L.M.N.%.%.O.P.Q.R.S.T.U.V.W.X.Y.3 . . .                   ",
"                            . Z.`. + +.+: ++@+#+$+%+&+*+=+-+;+>+,+. . . .                       ",
"                        . $ '+& & & & & )+!+~+{+]+^+/+(+_+;+:+<+e.e.[+. . }+                    ",
"                    . v.6 & & & & & & &  +|+1+2+$ 3+4+5+6+7+8+9+0+a+b+c+d+e+. .                 ",
"                  . f+g+& & & & & &  +] h+i+& z 5 ; X j+k+l+m+n n+o+p+q+r+s+t+. .               ",
"                . u+& & & & ] & ] h+,.v+E w+x+& ] z y+z+A+B+C+D+!.E+F+G+H+I+J+K+. .             ",
"                L+M+z N+A & O+O+P+'.Q+R+S+  T+& & ] 0 0 U+V+W+W+X+Y+Z+`+ @.@+@@@#@.             ",
"                $@^ ..%@W '+&@*@=@-@;@>@. . ,@ +^ h+'@)@. . !@~@k {@]@~ ^@/@(@_@:@<@.           ",
"                [@5 * y }@`+0.1+t.< . .   . F ^ C 5 |@1@2@. . . 3@4@5@6@7@1+8@9@Z 0@.           ",
"                  . a@b@+.c@d@e@. . .     e@& %@%@f@g@h@i@.         j@k@l@m@)@n@o@p@.           ",
"                        . .               . q@r@5 * s@t@  .               u@v@w@x@.             ",
"                                          . & * E h+y@z@A@.                                     ",
"                                          . %@z B@C@D@E@F@.                                     ",
"                                            G@a r@g@H@I@J@.                                     ",
"                                            . z+O+H@I@K@L@.                                     ",
"                                                M@N@O@P@.                                       ",
"                                                . Q@R@.                                         ",
"                                                                                                ",
"                                                                                                ",
"                                                                                                ",
"                                                                                                ",
"                                                                                                ",
"                                                                                                ",
"                                                                                                ",
"                                                                                                ",
"                                                                                                "};
