/* XPM */
static char * fourier1_xpm[] = {
"22 22 4 1",
" 	c None",
".	c #FF0000",
"+	c #000000",
"@	c #7E0000",
"                      ",
"                      ",
"          ..          ",
"         ....         ",
"        ......        ",
"      ++@@++@@++      ",
"       +@@  .. +      ",
"       @@+   ..+      ",
"..     @@+   @.     ..",
"...    @@+   @.    ...",
" ..    @@++++@.    .. ",
" ..    @@+   @.    .. ",
"  ..   @@+   ..   ..  ",
"  ..  .@++    ..  ..  ",
"  ..  .@++    ..  ..  ",
"  ..  @@++++  ..  ..  ",
"  ......      ......  ",
"   ....        ....   ",
"    ..          ..    ",
"                      ",
"                      ",
"                      "};
