/* XPM */
static char * GeoMorph_16x16_xpm[] = {
"16 16 5 1",
" 	c None",
".	c #FFFFFF",
"+	c #404000",
"@	c #008000",
"#	c #004000",
"                ",
"                ",
"    .           ",
"   ...     .    ",
"  .....   ...   ",
" ..+++.. .+...  ",
".++.+.+..+.+.+. ",
"++.+++.++.+.++..",
"@@++++++++++++++",
"@+@+@++++++++@@+",
"@@@++++@+@+++++@",
"@+@@+@@+@+@+@@+@",
"@@@@@@@@@@@@@@++",
"@@@@#@#@@@@@@@@@",
"@#@##@##@##@#@@#",
"################"};
