/* XPM */
static char * GeoMorph_48x48_xpm[] = {
"48 48 513 2",
"  	c None",
". 	c #FFFFFF",
"+ 	c #808055",
"@ 	c #C4C4AF",
"# 	c #A5A57F",
"$ 	c #54543F",
"% 	c #5E5E66",
"& 	c #8F8F67",
"* 	c #CECEBD",
"= 	c #FEFEFC",
"- 	c #DADACD",
"; 	c #212100",
"> 	c #A4A484",
", 	c #252500",
"' 	c #000000",
") 	c #D9D9D8",
"! 	c #FFFFFE",
"~ 	c #050500",
"{ 	c #61612A",
"] 	c #F7F7EF",
"^ 	c #F6F6EE",
"/ 	c #F7F7F1",
"( 	c #FDFDFA",
"_ 	c #EDEDE4",
": 	c #BBBBA0",
"< 	c #222200",
"[ 	c #1E1E00",
"} 	c #0C0C00",
"| 	c #393900",
"1 	c #F6F6F1",
"2 	c #282800",
"3 	c #82825E",
"4 	c #F2F2FA",
"5 	c #404000",
"6 	c #C1C1A6",
"7 	c #232300",
"8 	c #505013",
"9 	c #F4F4EF",
"0 	c #777746",
"a 	c #323200",
"b 	c #898961",
"c 	c #E7E7DF",
"d 	c #121200",
"e 	c #7E7E4F",
"f 	c #C4C4AB",
"g 	c #464705",
"h 	c #8D8D65",
"i 	c #AEAE91",
"j 	c #A6A688",
"k 	c #B6B69B",
"l 	c #BBBBA2",
"m 	c #909069",
"n 	c #070700",
"o 	c #C2C2A5",
"p 	c #2D2D00",
"q 	c #424201",
"r 	c #B4B498",
"s 	c #4C4C0F",
"t 	c #0B0B00",
"u 	c #808054",
"v 	c #87875E",
"w 	c #C8C8B5",
"x 	c #D8D8C8",
"y 	c #63632D",
"z 	c #8A8A63",
"A 	c #7C7C50",
"B 	c #B5B59A",
"C 	c #FBFBF6",
"D 	c #090900",
"E 	c #2C2C00",
"F 	c #0E0E00",
"G 	c #303000",
"H 	c #C5C5AE",
"I 	c #464604",
"J 	c #3B3B00",
"K 	c #CBCBB8",
"L 	c #030300",
"M 	c #87875C",
"N 	c #FAFAF9",
"O 	c #A2A281",
"P 	c #84845A",
"Q 	c #F5F5F0",
"R 	c #FAFAF8",
"S 	c #4E4E0E",
"T 	c #454502",
"U 	c #191900",
"V 	c #B7B79E",
"W 	c #6A6A36",
"X 	c #3E3E00",
"Y 	c #414100",
"Z 	c #313100",
"` 	c #D0D0BF",
" .	c #3A3A00",
"..	c #141400",
"+.	c #4D4D0F",
"@.	c #C6C6AF",
"#.	c #161600",
"$.	c #60602A",
"%.	c #ACAC8F",
"&.	c #2A2A00",
"*.	c #E8E8DF",
"=.	c #2F2F00",
"-.	c #49490A",
";.	c #B0B094",
">.	c #373700",
",.	c #A4A485",
"'.	c #383800",
").	c #1E1C00",
"!.	c #1F1E00",
"~.	c #242400",
"{.	c #8C8C64",
"].	c #C3C3AE",
"^.	c #010100",
"/.	c #262600",
"(.	c #9D9D79",
"_.	c #C2C2AB",
":.	c #717140",
"<.	c #171700",
"[.	c #2E2E00",
"}.	c #A6A686",
"|.	c #D3D3C0",
"1.	c #B2B295",
"2.	c #999974",
"3.	c #9F9F7F",
"4.	c #969672",
"5.	c #272700",
"6.	c #B2B298",
"7.	c #B1B194",
"8.	c #7F7F52",
"9.	c #E5E5DB",
"0.	c #B4B494",
"a.	c #CDCDB2",
"b.	c #3E3600",
"c.	c #3C3500",
"d.	c #3A3800",
"e.	c #2E2D00",
"f.	c #272600",
"g.	c #1C1C00",
"h.	c #4E4E10",
"i.	c #0F0F00",
"j.	c #70703E",
"k.	c #080800",
"l.	c #B3B398",
"m.	c #8E8E67",
"n.	c #535316",
"o.	c #BCBCA4",
"p.	c #61622C",
"q.	c #ACAC8E",
"r.	c #A2A282",
"s.	c #8A8B64",
"t.	c #151500",
"u.	c #9A9A73",
"v.	c #4A3300",
"w.	c #463500",
"x.	c #413900",
"y.	c #3D3800",
"z.	c #3A3700",
"A.	c #393700",
"B.	c #201F00",
"C.	c #56551B",
"D.	c #E8E8E0",
"E.	c #2D2E00",
"F.	c #3D3D00",
"G.	c #3C3C00",
"H.	c #333300",
"I.	c #747444",
"J.	c #202000",
"K.	c #434302",
"L.	c #4F4F14",
"M.	c #292900",
"N.	c #686835",
"O.	c #D1D1BF",
"P.	c #B7B79F",
"Q.	c #6D6D3A",
"R.	c #49490B",
"S.	c #353500",
"T.	c #404100",
"U.	c #101000",
"V.	c #B3B395",
"W.	c #0F7100",
"X.	c #186700",
"Y.	c #443A00",
"Z.	c #4A3400",
"`.	c #423A00",
" +	c #453300",
".+	c #332900",
"++	c #474405",
"@+	c #B6B59B",
"#+	c #757445",
"$+	c #171600",
"%+	c #313000",
"&+	c #3F3F00",
"*+	c #C7C7B2",
"=+	c #8F8F69",
"-+	c #363600",
";+	c #1D1D00",
">+	c #C4C4AE",
",+	c #7F7F54",
"'+	c #8D8C65",
")+	c #C5C4AF",
"!+	c #373600",
"~+	c #212000",
"{+	c #383700",
"]+	c #2D2C00",
"^+	c #262500",
"/+	c #2B2A00",
"(+	c #1F1F00",
"_+	c #6F6F3D",
":+	c #BCBCA3",
"<+	c #B8B89D",
"[+	c #009400",
"}+	c #008700",
"|+	c #344C00",
"1+	c #483700",
"2+	c #463800",
"3+	c #374400",
"4+	c #383E00",
"5+	c #393200",
"6+	c #292500",
"7+	c #2E2900",
"8+	c #3A3600",
"9+	c #3C3A00",
"0+	c #3E3D00",
"a+	c #403F00",
"b+	c #3C3B00",
"c+	c #292800",
"d+	c #292700",
"e+	c #383400",
"f+	c #3D3A00",
"g+	c #3F3C00",
"h+	c #403A00",
"i+	c #3E3B00",
"j+	c #3A3900",
"k+	c #1A1A00",
"l+	c #453A00",
"m+	c #364900",
"n+	c #008400",
"o+	c #265A00",
"p+	c #008A00",
"q+	c #106B00",
"r+	c #453200",
"s+	c #3C3400",
"t+	c #403400",
"u+	c #453500",
"v+	c #423C00",
"w+	c #413E00",
"x+	c #413F00",
"y+	c #3F3E00",
"z+	c #3D3C00",
"A+	c #3B3A00",
"B+	c #3E3C00",
"C+	c #3F3D00",
"D+	c #393800",
"E+	c #3C3800",
"F+	c #3B3500",
"G+	c #443400",
"H+	c #433800",
"I+	c #433C00",
"J+	c #463900",
"K+	c #473700",
"L+	c #403C00",
"M+	c #3D3B00",
"N+	c #363400",
"O+	c #343300",
"P+	c #631D00",
"Q+	c #4C3300",
"R+	c #008C00",
"S+	c #176800",
"T+	c #106F00",
"U+	c #2B5300",
"V+	c #4E3000",
"W+	c #295400",
"X+	c #116D00",
"Y+	c #3C4300",
"Z+	c #443B00",
"`+	c #423E00",
" @	c #403E00",
".@	c #413D00",
"+@	c #423B00",
"@@	c #403D00",
"#@	c #413C00",
"$@	c #483500",
"%@	c #126B00",
"&@	c #265800",
"*@	c #2B5500",
"=@	c #1B6500",
"-@	c #4B3400",
";@	c #483600",
">@	c #443900",
",@	c #3B4400",
"'@	c #008500",
")@	c #009900",
"!@	c #017F00",
"~@	c #453B00",
"{@	c #532C00",
"]@	c #493700",
"^@	c #433D00",
"/@	c #107000",
"(@	c #3B4500",
"_@	c #4D3200",
":@	c #3A4500",
"<@	c #3F4100",
"[@	c #443C00",
"}@	c #423D00",
"|@	c #3E4100",
"1@	c #2E5100",
"2@	c #008E00",
"3@	c #4F3000",
"4@	c #503000",
"5@	c #009700",
"6@	c #304F00",
"7@	c #473900",
"8@	c #394700",
"9@	c #3D4300",
"0@	c #008000",
"a@	c #008300",
"b@	c #009600",
"c@	c #196600",
"d@	c #4E3100",
"e@	c #552B00",
"f@	c #008100",
"g@	c #186800",
"h@	c #493600",
"i@	c #4A3600",
"j@	c #522E00",
"k@	c #4A3500",
"l@	c #176900",
"m@	c #008600",
"n@	c #4B3500",
"o@	c #156B00",
"p@	c #008D00",
"q@	c #364A00",
"r@	c #502F00",
"s@	c #512E00",
"t@	c #1A6500",
"u@	c #009A00",
"v@	c #275800",
"w@	c #473800",
"x@	c #008B00",
"y@	c #136D00",
"z@	c #009C00",
"A@	c #009000",
"B@	c #215E00",
"C@	c #245B00",
"D@	c #156A00",
"E@	c #009300",
"F@	c #265900",
"G@	c #394600",
"H@	c #0F7000",
"I@	c #00A000",
"J@	c #146B00",
"K@	c #275900",
"L@	c #00A100",
"M@	c #0E7100",
"N@	c #522D00",
"O@	c #512F00",
"P@	c #4C3400",
"Q@	c #2D5300",
"R@	c #196700",
"S@	c #4E3200",
"T@	c #1E6100",
"U@	c #009100",
"V@	c #126D00",
"W@	c #146C00",
"X@	c #2F5000",
"Y@	c #1D6300",
"Z@	c #0A7500",
"`@	c #225D00",
" #	c #008200",
".#	c #1D6200",
"+#	c #009200",
"@#	c #017E00",
"##	c #205F00",
"$#	c #009D00",
"%#	c #008F00",
"&#	c #2A5600",
"*#	c #136C00",
"=#	c #542B00",
"-#	c #009E00",
";#	c #008900",
">#	c #008800",
",#	c #562900",
"'#	c #3C4400",
")#	c #077800",
"!#	c #5A2500",
"~#	c #374800",
"{#	c #4F3100",
"]#	c #067900",
"^#	c #057A00",
"/#	c #225E00",
"(#	c #3E4200",
"_#	c #3D4200",
":#	c #255A00",
"<#	c #009B00",
"[#	c #1F6000",
"}#	c #2B5400",
"|#	c #1C6300",
"1#	c #1B6400",
"2#	c #582800",
"3#	c #166900",
"4#	c #2A5500",
"5#	c #3F4000",
"6#	c #582700",
"7#	c #552A00",
"8#	c #3C4200",
"9#	c #087700",
"0#	c #009500",
"a#	c #384700",
"b#	c #5B2400",
"c#	c #009800",
"d#	c #0C7300",
"e#	c #235C00",
"f#	c #037C00",
"g#	c #374900",
"h#	c #0B7400",
"i#	c #5D2200",
"j#	c #255900",
"k#	c #027E00",
"l#	c #235D00",
"m#	c #5C2300",
"n#	c #5F2000",
"o#	c #285700",
"p#	c #5E2000",
"q#	c #1C6400",
"r#	c #007F00",
"s#	c #601F00",
"t#	c #314E00",
"u#	c #0B7300",
"v#	c #176700",
"w#	c #295600",
"x#	c #2C5300",
"y#	c #502E00",
"z#	c #463A00",
"A#	c #314F00",
"B#	c #057B00",
"C#	c #602000",
"D#	c #255B00",
"E#	c #2C5400",
"F#	c #0C7400",
"G#	c #285800",
"H#	c #007E00",
"I#	c #007B00",
"J#	c #004300",
"K#	c #002D00",
"L#	c #006700",
"M#	c #003400",
"N#	c #003A00",
"O#	c #003600",
"P#	c #004400",
"Q#	c #005D00",
"R#	c #005A00",
"S#	c #005100",
"T#	c #007200",
"U#	c #006000",
"V#	c #005400",
"W#	c #005F00",
"X#	c #007A00",
"Y#	c #005700",
"Z#	c #003100",
"`#	c #001E00",
" $	c #003200",
".$	c #006400",
"+$	c #002700",
"@$	c #002E00",
"#$	c #005500",
"$$	c #005E00",
"%$	c #005B00",
"&$	c #007500",
"*$	c #005600",
"=$	c #005C00",
"-$	c #005900",
";$	c #005800",
">$	c #006200",
",$	c #002C00",
"'$	c #002F00",
")$	c #006A00",
"!$	c #001D00",
"~$	c #003500",
"{$	c #002A00",
"]$	c #003300",
"^$	c #004C00",
"/$	c #006B00",
"($	c #003800",
"_$	c #003B00",
":$	c #003700",
"<$	c #006300",
"[$	c #004100",
"}$	c #002900",
"|$	c #002300",
"1$	c #003D00",
"2$	c #002200",
"3$	c #007900",
"4$	c #003E00",
"5$	c #009F00",
"6$	c #003F00",
"7$	c #002600",
"8$	c #006C00",
"9$	c #004000",
"0$	c #006500",
"a$	c #003000",
"b$	c #003C00",
"c$	c #002800",
"d$	c #007000",
"e$	c #006100",
"f$	c #007100",
"g$	c #006F00",
"h$	c #005000",
"i$	c #006800",
"j$	c #006600",
"k$	c #006E00",
"l$	c #004200",
"m$	c #002B00",
"n$	c #003900",
"                                                                                                ",
"                                                                                                ",
"                                                                                                ",
"                                                                                                ",
"                                                                                                ",
"                                                                                                ",
"                          . .                                                                   ",
"                        . . . .                                                                 ",
"                      . . . . . .                                                               ",
"                    . . . . . . . .                                 .                           ",
"                  . . . . . . . . . .                             . .                           ",
"                . . . . . . . . . . . .                         . . . .                         ",
"              . . . . . . . . . . . . . .                     . . . . . .                       ",
"            . . . . . . . . . . . . . . . .                 . . . . . . . .                     ",
"          . . . . . . . . . . . . . . . . . .             . . . . . . . . . .                   ",
"        . . . . + @ . # $ % . . . & * . . . . .         . . . . . . . . . . . .                 ",
"      . . = . - ; > . , ' ' ) . ! ~ { . . . . ] ^     . . / ( . . . . . . . _ . .               ",
"    . : < [ } | 1 . . 2 3 4 5 6 . 7 ' 8 . . 9 [ 0 . . . . a b . . . . . . c d e . .             ",
"  . f g ' h i j k l m n o . p q r r s t u = . v w . . x y ' z . . . . . . . A B . . .           ",
". C p D y . . . E ' F G H . I ' J . K L ' M . . . N . O n ' P . . . Q . . R . . . . . .         ",
"S T U V . W X Y d ' Z . `  .p ..+.. @.' #.[ $.. %.&.. . *.=.' -.. ;.>.. ,.'.. . . . . . .       ",
").!.~.{.].a ^./.(._.@.` :.<.[.&.X }.|.1.&.' 7 2.;.3.4.. . 5.q 6.7.a F . %.' 8.. . 3.9.. 0.a.    ",
"b.c.d.e.f.Z g.h.. . .  .<.'.| | [.i.k . j.G < k.l.. 7 m.. n.o.. Z k.p.. q.} ' r.. U s.( t.u..   ",
"v.w.x.y.z.A.B.C.. D.J E.Z J F.G.>.[.H.I.. @ J.2 K.L.M., N.. O.'.<.P.. Q.[.&.5.X R.5.S.T.U.V.. . ",
"W.X.Y.Z.`. +.+++@+#+$+%+G.X &+&+F.J < >.*+=+E -+p /.a ;+H.>+,+d < '+)+!+~+{+| ]+^+H./+(+< _+:+<+",
"[+}+|+1+2+3+4+5+6+7+8+9+0+a+5 5 &+F.b+-+c+=.J b+F.F.J  .S.5.E >.{+e.d+e+y.f+g+g+h+i+b+j+{+M.g.k+",
"l+m+n+o+1+p+q+r+s+t+u+v+w+x+x+a+a+y+0+z+d.A+B+C+&+a+y+0+z+D+ .b+9+E+F+G+H+v+I+J+K+I+v+L+M+D+N+O+",
"P+Q+R+}+S+T+U+Z.V+W+X+Y+J+Z+1+l+`+w+ @ @.@Y.K+I+w+w+w+Y.K++@@@@@#@$@v+%@&@1+1+*@=@J+-@Z+;@>@L+g+",
"-@,@'@)@!@~@{@]@^@/@p+(@_@l+:@<@l+[@`+}@I+|@:@Z+l+I+[@|@:@Z+~@^@I+I+1@2@S+3@4@T+5@6@]@7@8@9@l+Z+",
"0@a@b@c@d@d@e@J+f@g@h@i@j@}@'@S+Q+k@J+[@i@l@m@w+3@J+n@S+m@w+3@l+i@o@p@q@d@r@s@t@u@[+v@w@x@y@-@n@",
"z@A@B@C@v@s@a+D@E@f@F@h@G@H@I@J@7@J@K@h@d@H@L@M@G@N@O@H@I@H@G@s@P@Q@T+c@R@C@S@T@U@V@c@W@W.X@[@Y@",
"a@Z@1+`@ #w+.#5@A@+#@#h@##$#%#&#Z+p+D@d@S@B@U@$#V@w@N@C@2@u@*#w@k@=#~@0@-#;#1+##>#_@C@p+`+,#'#U@",
"=#l+)#v@1+Z@x@2@5@S+P@!#.#p@~#s@s@l+1+{#k@i@|+%#)@]#k@,#G@'@[+^#1+=#_@P@J@;#k@/#}+h@r@(#1+3@_#p+",
"6@:#R+M@v@p@<#;#[#n@!#}#'@x@-@a+|#C@t@1#]@2#P@v@0@U@3#J+Q+m@$#p@3#Y+k@v@0@a@N@4#2@3#5#6#n@N@~@}+",
"R+x@}+p@2@f@ #Z@l+7#8#;#b@9#_@C@u@0#+#0@a#Q+r@b#F@[+c#:#3@d#p+2@5@e#Q+f#0#a@l+F@%#b@g@]@-@-@g#'@",
"'@m@m@U@'@_#7#l+h# #f@%#1#3@i#F@+#A@j#1+k#l#m#n#v@U@U@o#p#7#.#b@E@F@i#{@q#E@r#r#>#p+R+9#h@4#p+p@",
"f@a@>#d#X@m#Q+##>#U@p@%#6@s#t#u#p+>#v#w#x@]#v@o#H@p+;#T+w#x#X@:#'@h#o#}#6@j#n+p+n+n+0#x@h@e#u@E@",
"f@n+x@}#s#y#t@+#}+n+'@p+o#z#f@%#n+a@m@;#'@;#p@R+>#n+n+}+p@U@o#d@^#%#2@U@o#_@)#;#a@'@m@d#r@v@A@r#",
"f@n+x@A#6#M@>#}+a@f@ #a@!@B#m@m@n+a@a@'@n+n+m@'@ # #f@ #'@'@@#)# #'@'@m@@#)#f@a@a@>#F@6#C#e#'@l+",
" #a@>#o@D#}+x@a@f@f@f@ #m@x@R+R+p+'@>#x@R+R+x@a@ #f@f@f@ #a@m@;#n+ # #a@m@;#n+ # #}+o@t#E#F#'@G#",
"m@m@}+;#R+}+m@'@ #f@f@ #m@}+H#I#H#>#n+H#H#H#H#m@m@a@n+'@'@m@'@'@a@a@'@'@m@m@'@'@'@n+>#R+%#x@;#x@",
"2@2@p@p+;#x@p@p+n+a@a@'@A@m@J#K#J#m@L#M#N#O#P#m@A@}+x@p@2@2@2@R+m@;#R+p@p@2@2@p@p+'@'@}+p@2@p@p+",
"Q#R#S#T#}+U#V#W# #p@2@+#X#Y#Z#`# $;#.$+$@$K#M#Y#X#m@R##$Q#$$%$.$2@&$S#V##$*$=$-$U# #p@f@;$S#>$x@",
"K#,$'$)$>#O#!$~$0@x@f@>#-${$]$O#^$A@/$Z#($_$:${$<$;#[$}$,$@$}$($r#>$Z#M#:$:$K#|$O#f@5@f@1$2$Z#3$",
"Z#4$ #5$p@6$7$4$;#8$($9$_$O#]$0$c#L@)$M#_$1$N#a$L#z@p@=$a$:$($($b$L#A@p@+#a@6$c$4$;#z@E@%#;$c$b$",
"($6$L#d$e$1$@$J#0#)$}$Z#($b$($V#f$8$S#($4$6$1$:$^$d$I@g$]$N#b$N#Z#h$g$8$d$i$6$]$1$W#j$>$i$k$<$:$",
"b$_$~$M#~$N#~$l$}+L#M#N#1$4$b$($M#M#($b$4$6$4$_$a$b$n+L#O#_$4$4$b$:$]$ $]$O#_$_$N#M#Z#'$m$j$p+J#",
"1$b$N#N#N#_$_$_$J#6$N#1$6$6$4$1$N#N#1$4$6$6$6$1$n$($l$4$_$1$6$6$4$b$N#n$n$N#1$1$1$N#($:$O#1$J#n$"};
