/* XPM */
static char * honeycomb_xpm[] = {
"22 22 9 1",
" 	c None",
".	c #AAAAAA",
"+	c #858585",
"@	c #343434",
"#	c #B9B9B9",
"$	c #171717",
"%	c #FFFFFF",
"&	c #6F6F6F",
"*	c #191919",
"......+++++++++++@@@@@",
"######+++++++++++$$$$$",
"######+++++++++++$$$$$",
"#######+++++++++$$$$$$",
"#######+++++++++$$$$$$",
"########+++++++$$$$$$$",
"########%%%%%%%$$$$$$$",
"########%%%%%%%$$$$$$$",
"#######%%%%%%%%%$$$$$$",
"#######%%%%%%%%%$$$$$$",
"######%%%%%%%%%%%$$$$$",
"&&&&&&%%%%%%%%%%%&&&&&",
"&&&&&&%%%%%%%%%%%&&&&&",
"&&&&&&&%%%%%%%%%&&&&&&",
"&&&&&&&%%%%%%%%%&&&&&&",
"&&&&&&&&%%%%%%%&&&&&&&",
"&&&&&&&&*******&&&&&&&",
"&&&&&&&&*******&&&&&&&",
"&&&&&&&*********&&&&&&",
"&&&&&&&*********&&&&&&",
"&&&&&&***********&&&&&",
"&&&&&&***********&&&&&"};
