/* XPM */
static char * merge_dialog_xpm[] = {
"22 22 5 1",
" 	c None",
".	c #FFFFFF",
"+	c #000000",
"@	c #818181",
"#	c #FF0000",
"                      ",
"    ............      ",
"    .++++++++++.      ",
"    .++++++++++.      ",
"    .++++++++++.      ",
"    .++++++++++.      ",
"    .++++++++++++++++ ",
"    .+++++@@@@@.....+ ",
"    .+++++@@@@@.....+ ",
"    .+++++@@@@@.....+ ",
"    .+++++@@@@@.....+ ",
"    .+++++@@@@@.....+ ",
"    .....+..........+ ",
"         +..........+ ",
"   ##    +..........+ ",
"   ##    +..........+ ",
"   ##    +..........+ ",
"######## ++++++++++++ ",
"########              ",
"   ##                 ",
"   ##                 ",
"   ##                 "};
