/* XPM */
static char * merge_xpm[] = {
"22 22 4 1",
" 	c None",
".	c #000000",
"+	c #828282",
"@	c #FFFFFF",
"                      ",
"                      ",
"  ...............     ",
"  ...............     ",
"  ...............     ",
"  ...++++++++++++@@@  ",
"  ...++++++++++++@@@  ",
"  ...++++++++++++@@@  ",
"  ...++++++++++++@@@  ",
"  ...++++++++++++@@@  ",
"  ...++++++++++++@@@  ",
"  ...++++++++++++@@@  ",
"  ...++++++++++++@@@  ",
"  ...++++++++++++@@@  ",
"  ...++++++++++++@@@  ",
"  ...++++++++++++@@@  ",
"  ...++++++++++++@@@  ",
"     @@@@@@@@@@@@@@@  ",
"     @@@@@@@@@@@@@@@  ",
"     @@@@@@@@@@@@@@@  ",
"                      ",
"                      "};
