/* XPM */
static char * mirror_vertical_xpm[] = {
"22 22 3 1",
" 	c None",
".	c #000000",
"+	c #FF0000",
"                      ",
"    ..............    ",
"    .  ++    +   .    ",
"    .  ++    ++  .    ",
"    .  ++   +++  .    ",
"    .  + +  + +  .    ",
"    .  + +  + +  .    ",
"    .  + + +  +  .    ",
"    .  + + +  +  .    ",
"    .  +  ++  +  .    ",
"    ..............    ",
"    ..............    ",
"    .  +  ++  +  .    ",
"    .  + + +  +  .    ",
"    .  + + +  +  .    ",
"    .  + +  + +  .    ",
"    .  + +  + +  .    ",
"    .  ++   +++  .    ",
"    .  ++    ++  .    ",
"    .  ++    +   .    ",
"    ..............    ",
"                      "};
