/* XPM */
static char * moyen10_2_test_xpm[] = {
"22 22 2 1",
" 	c None",
".	c #FF0000",
"                      ",
"                      ",
"                      ",
"          ..          ",
"         ....         ",
"        ..  ..        ",
"        .    .        ",
"       ..    ..       ",
"       .      .       ",
"       .      .       ",
"...    .      .    ...",
" ...  ..      ..  ... ",
"  ..  .        . ...  ",
"   .. .        . ..   ",
"    ...        ...    ",
"    ...        ...    ",
"                      ",
"                      ",
"                      ",
"                      ",
"                      ",
"                      "};
