/* XPM */
static char * moyen20_1_8_xpm[] = {
"22 22 2 1",
" 	c None",
".	c #000000",
"                      ",
"                      ",
"                      ",
"          ..          ",
"         ....         ",
"         ....         ",
"        ..  ..        ",
"        ..  ..        ",
"        ..  ..        ",
"        .    .        ",
"       ..    ..       ",
"       ..    ..       ",
"       ..    ..       ",
"      ..      ..      ",
"      ..      ..      ",
"      ..      ..      ",
"     ..        ..     ",
"     ..        ..     ",
"    ...        ...    ",
"   ...          ...   ",
"  ...            ...  ",
"....              ...."};
