/* XPM */
static char * noise_xpm[] = {
"22 22 162 2",
"  	c None",
". 	c #4C4C4C",
"+ 	c #5D5D5D",
"@ 	c #2C2C2C",
"# 	c #2B2B2B",
"$ 	c #474747",
"% 	c #5A5A5A",
"& 	c #414141",
"* 	c #505050",
"= 	c #636363",
"- 	c #686868",
"; 	c #828282",
"> 	c #6E6E6E",
", 	c #787878",
"' 	c #858585",
") 	c #989898",
"! 	c #888888",
"~ 	c #757575",
"{ 	c #959595",
"] 	c #535353",
"^ 	c #434343",
"/ 	c #494949",
"( 	c #343434",
"_ 	c #171717",
": 	c #404040",
"< 	c #767676",
"[ 	c #585858",
"} 	c #6C6C6C",
"| 	c #464646",
"1 	c #393939",
"2 	c #646464",
"3 	c #5B5B5B",
"4 	c #848484",
"5 	c #737373",
"6 	c #ADADAD",
"7 	c #E4E4E4",
"8 	c #4D4D4D",
"9 	c #575757",
"0 	c #727272",
"a 	c #CECECE",
"b 	c #191919",
"c 	c #5C5C5C",
"d 	c #6A6A6A",
"e 	c #6D6D6D",
"f 	c #565656",
"g 	c #606060",
"h 	c #1E1E1E",
"i 	c #363636",
"j 	c #272727",
"k 	c #979797",
"l 	c #292929",
"m 	c #4B4B4B",
"n 	c #7B7B7B",
"o 	c #151515",
"p 	c #444444",
"q 	c #5E5E5E",
"r 	c #616161",
"s 	c #717171",
"t 	c #7F7F7F",
"u 	c #868686",
"v 	c #232323",
"w 	c #010101",
"x 	c #3D3D3D",
"y 	c #313131",
"z 	c #1A1A1A",
"A 	c #454545",
"B 	c #424242",
"C 	c #4F4F4F",
"D 	c #7D7D7D",
"E 	c #353535",
"F 	c #4E4E4E",
"G 	c #7E7E7E",
"H 	c #A2A2A2",
"I 	c #2A2A2A",
"J 	c #282828",
"K 	c #3E3E3E",
"L 	c #818181",
"M 	c #C1C1C1",
"N 	c #676767",
"O 	c #595959",
"P 	c #242424",
"Q 	c #3C3C3C",
"R 	c #0C0C0C",
"S 	c #9B9B9B",
"T 	c #666666",
"U 	c #1C1C1C",
"V 	c #525252",
"W 	c #515151",
"X 	c #323232",
"Y 	c #202020",
"Z 	c #A0A0A0",
"` 	c #FDFDFD",
" .	c #3A3A3A",
"..	c #A4A4A4",
"+.	c #878787",
"@.	c #929292",
"#.	c #2F2F2F",
"$.	c #545454",
"%.	c #8C8C8C",
"&.	c #6B6B6B",
"*.	c #A9A9A9",
"=.	c #8F8F8F",
"-.	c #0D0D0D",
";.	c #070707",
">.	c #484848",
",.	c #7A7A7A",
"'.	c #ACACAC",
").	c #020202",
"!.	c #919191",
"~.	c #C7C7C7",
"{.	c #9A9A9A",
"].	c #303030",
"^.	c #3B3B3B",
"/.	c #0A0A0A",
"(.	c #000000",
"_.	c #131313",
":.	c #797979",
"<.	c #707070",
"[.	c #9F9F9F",
"}.	c #111111",
"|.	c #252525",
"1.	c #6F6F6F",
"2.	c #838383",
"3.	c #333333",
"4.	c #373737",
"5.	c #555555",
"6.	c #4A4A4A",
"7.	c #212121",
"8.	c #8E8E8E",
"9.	c #626262",
"0.	c #2D2D2D",
"a.	c #3F3F3F",
"b.	c #383838",
"c.	c #262626",
"d.	c #0F0F0F",
"e.	c #7C7C7C",
"f.	c #939393",
"g.	c #A1A1A1",
"h.	c #9C9C9C",
"i.	c #D2D2D2",
"j.	c #2E2E2E",
"k.	c #656565",
"l.	c #181818",
"m.	c #1B1B1B",
"n.	c #1F1F1F",
"o.	c #060606",
"p.	c #030303",
"q.	c #222222",
"r.	c #CDCDCD",
"s.	c #1D1D1D",
"t.	c #898989",
"u.	c #808080",
"v.	c #A6A6A6",
"w.	c #0B0B0B",
"x.	c #969696",
"y.	c #777777",
"z.	c #9D9D9D",
"A.	c #D3D3D3",
"B.	c #F5F5F5",
"C.	c #8A8A8A",
"D.	c #B2B2B2",
"E.	c #B9B9B9",
". + @ # $ % $ & * = - ; > , ' ) ! ~ ; { ] ^ ",
"/ ( _ : < [ } | 1 + 2 3 4 5 6 6 7 8 9 . + $ ",
"0 a _ b c d 2 e f g h b i j = k ^ l 8 m g > ",
"n ( o p q r s t u v w x y 1 z A B C D $ E F ",
"G H I J ] K L M f N F t ^ O & P Q R s S % T ",
") c U N u V W } c F ( X Y e u d ! O [ $ ( * ",
"Z ` T t %  .u ..+.@.#.p B G c $.} e + * F / ",
"%.&.! < *.4 =.; M E -.h ;.>.! 3 ,.r %.t '.] ",
". ).- 9 !.~.$.8 L {.].^./.(.$.^ E _.~ :./ $ ",
"/ <.[.+ g % B } n p 1 }.(.p , ^.|.1.{ 2.'.3.",
"& V W 4.<.4 r s 5.1.p f J v O 6.C . 3 2.U 7.",
"l = 8./ g 9.5.m 0.a.B >.b.[ n d n y h F $.|.",
"E c c.d.~ H ; ; C C O q a.v T e.K y 6.a.p A ",
"J J b A >.f.g.u L [ 0 9 N : / / $.5.+.K 4.g ",
"# J 4.x e 4 h.i.$ C & / K l j.v 3.R ] A k.- ",
"l K # | q A < : F j _.= T ( l.8 s 3 4 ^ W K ",
"^ N y q X m.n.o.@ p.!.*.t L # q.a.^ X |.E & ",
"$ # v O 6.C Q Q x ,.r.*.r.i l Q l.6.^.s.(.% ",
"K b.[ n d n y P E #.t.!.m 0.u.v.} g.3 6.=.=.",
"y Q v T e.K I l w.- 0 ] B 9.&.t 1 G =.> x.% ",
"^.x a./ / * J m.y.z./ C [ b.A.B.C.9.1.| c + ",
"K & K X n.E @ + 0 = . ~ - %.v.D.E.S z.g / . "};
