/* XPM */
static char * onde_rouge_xpm[] = {
"22 22 2 1",
" 	c None",
".	c #FF0000",
"                      ",
"                      ",
"          ..          ",
"         ....         ",
"        ......        ",
"        ..  ..        ",
"        ..  ..        ",
"       ..    ..       ",
"..     ..    ..     ..",
"...    ..    ..    ...",
" ..    ..    ..    .. ",
" ..    ..    ..    .. ",
"  ..   ..    ..   ..  ",
"  ..  ..      ..  ..  ",
"  ..  ..      ..  ..  ",
"  ..  ..      ..  ..  ",
"  ......      ......  ",
"   ....        ....   ",
"    ..          ..    ",
"                      ",
"                      ",
"                      "};
