/* XPM */
static char *paste_special_xpm[]={
"20 20 12 1",
". c None",
"# c #000000",
"e c #000040",
"b c #000080",
"g c #666262",
"h c #787373",
"f c #898383",
"d c #9a9494",
"j c #aaaaaa",
"a c #e5e0e1",
"c c #f72307",
"i c #ffffff",
"......##............",
".....#aa#......bbb..",
"#####a##acccc#...b..",
"#dd#aaaacccccc...b..",
"#d####eccccccccbbbbb",
"#ddddddccfddccc.bbb.",
"#ddddddccdddgcc..b..",
"#ddddddhhdddccc.....",
"#ddddddd####ccc##...",
"#ddddddd#ijcccii##..",
"#ddddddd#iccciii#d#.",
"#ddddddd#ccc###i####",
"#ddddddd#ccciiiiiii#",
"#ddddddd#iii######i#",
"#ddddddd#ccciiiiiii#",
"#ddddddd#cccee####i#",
"#########ccciiiiiii#",
"........#i########i#",
"........#iiiiiiiiii#",
"........############"};

