/* XPM */
static char * peak_crater_xpm[] = {
"128 32 2 1",
" 	c None",
".	c #000000",
"                                                                                                                                ",
"                                                                                                                                ",
"                                                                                                                                ",
"                                                                                                                                ",
"                                                                                                                                ",
"                                                                                                                                ",
"                    ..                                                                                   ..                     ",
"                  .....                                                                                  ....                   ",
"                ........                                                                                .. .....                ",
"           ........   ..                                                                               ...   .......            ",
"...............        ..                                                                             ...       ................",
".........              ...                                                                           ...              ..........",
"                        ...                                                                         ...                         ",
"                         ...                                                                       ...                          ",
"                           ...                                                                   ....                           ",
"                            ....                                                                ....                            ",
"                              ...                                                             ....                              ",
"                               ....                                                          ...                                ",
"                                 ....                                                      ....                                 ",
"                                  .....                                                  ....                                   ",
"                                    .....                                              ....                                     ",
"                                      .....                                          ....                                       ",
"                                        .....                 ...                 .....                                         ",
"                                           .....              ....             ......                                           ",
"                                             .......         .. ...        ........                                             ",
"                                                 ..............  ..... ........                                                 ",
"                                                     ........     .........                                                     ",
"                                                                                                                                ",
"                                                                                                                                ",
"                                                                                                                                ",
"                                                                                                                                ",
"                                                                                                                                "};
