/* XPM */
static char*penblack_xpm[]={
"22 22 5 1",
"c c #a0a0a0",
"# c #000000",
"b c #dcdcdc",
"a c #ffffff",
". c None",
"..........#aabb#cc....",
"..........#abb##c.....",
"..........##bb#cc.....",
"..........#####c......",
"..........####cc......",
"..........###cc.......",
"..........##cc........",
"..........#cc.........",
"...........c..........",
"......................",
"......................",
"....##############....",
"...################...",
"..##################..",
".####################.",
"######################",
"######################",
"######################",
"######################",
"######################",
"######################",
"######################"};

