/* XPM */
static char * pencrater_xpm[] = {
"22 22 100 2",
"  	c None",
". 	c #8F8F8F",
"+ 	c #000000",
"@ 	c #FFFFFF",
"# 	c #DCDCDC",
"$ 	c #A0A0A0",
"% 	c #909090",
"& 	c #919191",
"* 	c #939393",
"= 	c #8E8E8E",
"- 	c #878787",
"; 	c #848484",
"> 	c #898989",
", 	c #8C8C8C",
"' 	c #979797",
") 	c #9F9F9F",
"! 	c #737373",
"~ 	c #525252",
"{ 	c #484848",
"] 	c #5A5A5A",
"^ 	c #595959",
"/ 	c #717171",
"( 	c #7F7F7F",
"_ 	c #929292",
": 	c #7A7A7A",
"< 	c #808080",
"[ 	c #8A8A8A",
"} 	c #9D9D9D",
"| 	c #2F2F2F",
"1 	c #373737",
"2 	c #434343",
"3 	c #555555",
"4 	c #5F5F5F",
"5 	c #707070",
"6 	c #9E9E9E",
"7 	c #A8A8A8",
"8 	c #999999",
"9 	c #676767",
"0 	c #A3A3A3",
"a 	c #A6A6A6",
"b 	c #3E3E3E",
"c 	c #2E2E2E",
"d 	c #3C3C3C",
"e 	c #4C4C4C",
"f 	c #6E6E6E",
"g 	c #7B7B7B",
"h 	c #969696",
"i 	c #A1A1A1",
"j 	c #ABABAB",
"k 	c #B0B0B0",
"l 	c #656565",
"m 	c #454545",
"n 	c #535353",
"o 	c #686868",
"p 	c #797979",
"q 	c #B1B1B1",
"r 	c #B4B4B4",
"s 	c #B5B5B5",
"t 	c #B9B9B9",
"u 	c #777777",
"v 	c #696969",
"w 	c #989898",
"x 	c #868686",
"y 	c #4A4A4A",
"z 	c #565656",
"A 	c #6F6F6F",
"B 	c #818181",
"C 	c #B8B8B8",
"D 	c #BABABA",
"E 	c #BBBBBB",
"F 	c #5D5D5D",
"G 	c #828282",
"H 	c #9A9A9A",
"I 	c #363636",
"J 	c #4E4E4E",
"K 	c #787878",
"L 	c #8B8B8B",
"M 	c #959595",
"N 	c #A2A2A2",
"O 	c #BDBDBD",
"P 	c #626262",
"Q 	c #AEAEAE",
"R 	c #333333",
"S 	c #4D4D4D",
"T 	c #9C9C9C",
"U 	c #AAAAAA",
"V 	c #636363",
"W 	c #A5A5A5",
"X 	c #464646",
"Y 	c #A7A7A7",
"Z 	c #A4A4A4",
"` 	c #7D7D7D",
" .	c #767676",
"..	c #838383",
"+.	c #7E7E7E",
"@.	c #6C6C6C",
"#.	c #858585",
"$.	c #949494",
"%.	c #888888",
"&.	c #8D8D8D",
". . . . . . . . . . + @ @ # # + $ $ . . . . ",
". . . . . . . . . . + @ # # + + $ . . . . . ",
". . . . . . . . . . + + # # + $ $ . . . . . ",
". . . . . . . . . . + + + + + $ . . . . . . ",
". . . . . . . . . . + + + + $ $ . . . . . . ",
". . . . . . . . . . + + + $ $ . . . . . . . ",
". . . . . . . . . . + + $ $ . . . . . . . . ",
". . . . . . . . . . + $ $ . . . . . . . . . ",
". . . . . . . . . . . . . . . . . . . . . . ",
". . . . % & * % = = - ; > ; > , . . . . . . ",
". . . * ' ) ! ~ { ] ^ / ( , _ : < [ . . . . ",
". . & } ' { | 1 2 3 4 5 < % 6 7 8 9 ; = . . ",
". * 0 a b c c d e 4 f g % h i j k 6 l < . . ",
". h j ; c c c m n o p - h i q r s t u v > . ",
". w k x c c | y z A B = } 7 C C D E > F G . ",
". w k H I c c J 4 K L M N j r D O D : P G = ",
". M 0 Q B R c S o B . _ T U s E D 7 V 9 ; . ",
". % w W W ' X { v B . % w Y r s ) P o K L . ",
". . % M 8 7 Z & : < = % M 6 % ` V 9  .> . . ",
". . . . & ' N _ > $ ..+.: ( @.` u #.L = . . ",
". . . . . % * % $.H ..%.[ = x , &.= . . . . ",
". . . . . . . . . . . . . . . . . . . . . . "};
