/* XPM */
static char*penhf_xpm[]={
"22 22 8 1",
"e c #008000",
"c c #a0a0a0",
"f c #004000",
"# c #000000",
"d c #004040",
"b c #dcdcdc",
"a c #ffffff",
". c None",
"..........#aabb#cc....",
"..........#abb##c.....",
"..........##bb#cc.....",
"..........#####c......",
"..........####cc......",
"..........###cc.......",
"..........##cc........",
"..........#cc....a....",
"...........c....aaa...",
".....a.........aaaaa..",
"....aaa.......aaaaaaa.",
"...aaaaa.....aaadaadaa",
"..aaaaaaaa..adaadaaadd",
".adadadaaaaaddaddadaad",
"adaaaadaadaadaadaaddaa",
"daddaddadadadaddadddda",
"dddaddaddadddddedeeddd",
"ddddedddedddddddededdd",
"ddeeeedddedeeddedeeefe",
"eeeeeeeeeefeeeeffeeefe",
"feffeeefeeefffeeffefff",
"ffffffffffffffffffffff"};


