/* XPM */
static char * penhf2_xpm[] = {
"22 22 116 2",
"  	c None",
". 	c #A4A4A4",
"+ 	c #000000",
"@ 	c #FFFFFF",
"# 	c #DCDCDC",
"$ 	c #A0A0A0",
"% 	c #A3A3A3",
"& 	c #A5A5A5",
"* 	c #A7A7A7",
"= 	c #A8A8A8",
"- 	c #9B9B9B",
"; 	c #8E8E8E",
"> 	c #848484",
", 	c #959595",
"' 	c #969696",
") 	c #A9A9A9",
"! 	c #AAAAAA",
"~ 	c #ABABAB",
"{ 	c #999999",
"] 	c #747474",
"^ 	c #808080",
"/ 	c #828282",
"( 	c #939393",
"_ 	c #8F8F8F",
": 	c #6C6C6C",
"< 	c #787878",
"[ 	c #989898",
"} 	c #949494",
"| 	c #9D9D9D",
"1 	c #AEAEAE",
"2 	c #7D7D7D",
"3 	c #A1A1A1",
"4 	c #ADADAD",
"5 	c #ACACAC",
"6 	c #8C8C8C",
"7 	c #919191",
"8 	c #888888",
"9 	c #7B7B7B",
"0 	c #878787",
"a 	c #B5B5B5",
"b 	c #B3B3B3",
"c 	c #606060",
"d 	c #555555",
"e 	c #B1B1B1",
"f 	c #B2B2B2",
"g 	c #AFAFAF",
"h 	c #9A9A9A",
"i 	c #8A8A8A",
"j 	c #9C9C9C",
"k 	c #8B8B8B",
"l 	c #4D4D4D",
"m 	c #444444",
"n 	c #B4B4B4",
"o 	c #868686",
"p 	c #626262",
"q 	c #636363",
"r 	c #818181",
"s 	c #696969",
"t 	c #525252",
"u 	c #515151",
"v 	c #585858",
"w 	c #B7B7B7",
"x 	c #858585",
"y 	c #5C5C5C",
"z 	c #6B6B6B",
"A 	c #6A6A6A",
"B 	c #5B5B5B",
"C 	c #3E3E3E",
"D 	c #6D6D6D",
"E 	c #575757",
"F 	c #505050",
"G 	c #454545",
"H 	c #565656",
"I 	c #BABABA",
"J 	c #B6B6B6",
"K 	c #9F9F9F",
"L 	c #A2A2A2",
"M 	c #646464",
"N 	c #757575",
"O 	c #5D5D5D",
"P 	c #333333",
"Q 	c #6E6E6E",
"R 	c #4E4E4E",
"S 	c #494949",
"T 	c #4B4B4B",
"U 	c #BBBBBB",
"V 	c #B9B9B9",
"W 	c #323232",
"X 	c #484848",
"Y 	c #404040",
"Z 	c #545454",
"` 	c #5E5E5E",
" .	c #BEBEBE",
"..	c #7E7E7E",
"+.	c #474747",
"@.	c #3C3C3C",
"#.	c #4A4A4A",
"$.	c #4C4C4C",
"%.	c #737373",
"&.	c #535353",
"*.	c #C0C0C0",
"=.	c #BDBDBD",
"-.	c #B8B8B8",
";.	c #8D8D8D",
">.	c #C2C2C2",
",.	c #797979",
"'.	c #5A5A5A",
").	c #717171",
"!.	c #C3C3C3",
"~.	c #BFBFBF",
"{.	c #676767",
"].	c #727272",
"^.	c #C4C4C4",
"/.	c #C5C5C5",
"(.	c #C1C1C1",
"_.	c #C6C6C6",
". . . . . . . . . . + @ @ # # + $ $ . . . . ",
". . . . . . . . . . + @ # # + + $ . . . . . ",
". . . . . . . . . . + + # # + $ $ . . . . . ",
". . . . . . . . . . + + + + + $ . . . . . . ",
". . . . . . . . . . + + + + $ $ . . . . . . ",
". . . . . . . . . . + + + $ $ . . . . . . . ",
". . . . . . . . . . + + $ $ . . . . . . . . ",
"% . . . . & & & & & + $ $ & & * * * * * * & ",
"& * * = = - ; > , ' ) $ ! ! * . & ~ ~ ~ ~ = ",
"! ! ~ ~ { ] ^ / ( _ : < [ } | 1 2 3 4 4 4 ~ ",
"5 5 4 6 ( 6 7 8 9 8 0 } < ( a b c d | e f e ",
"1 g h { { 0 : i _ j 7 ~ $ ; > k l m : | n n ",
"f % % n o o p o & { i q ^ [ r s t u v } n w ",
"n f ) x | < y z A : B C q / D B E F G H 8 I ",
"J w K 1 L M q N H O t P H Q F G R S T u r U ",
"V V e ! x s q ^ v O T W S u X Y Z ` y d &  .",
"I U U % ..2 z N ` O +.@.#.u $.#.M %.&.o *.*.",
"=.=.=.-.;.0 / 9 c p R $.R O p q r < F 1 >.>.",
" . . . .} ; j ^ , ,.'.E B N %.).0 ] j !.!.!.",
"~.~.*.*.7 , { ,._ 6 : {.].| z ; ~ -.^.^.^./.",
"(.(.>.>.~.$ / 6 [ ,...Q { 5 J ^.^.^./././._.",
"!.!.!.!.!.!.>.!.^.(.*.(././.^././././._._._."};
