/* XPM */
static char * penstandard_xpm[] = {
"22 22 107 2",
"  	c None",
". 	c #8F8F8F",
"+ 	c #000000",
"@ 	c #FFFFFF",
"# 	c #DCDCDC",
"$ 	c #A0A0A0",
"% 	c #909090",
"& 	c #8A8A8A",
"* 	c #8D8D8D",
"= 	c #929292",
"- 	c #969696",
"; 	c #A4A4A4",
"> 	c #ACACAC",
", 	c #999999",
"' 	c #767676",
") 	c #525252",
"! 	c #565656",
"~ 	c #717171",
"{ 	c #818181",
"] 	c #8B8B8B",
"^ 	c #959595",
"/ 	c #AAAAAA",
"( 	c #B6B6B6",
"_ 	c #B7B7B7",
": 	c #ABABAB",
"< 	c #707070",
"[ 	c #4C4C4C",
"} 	c #373737",
"| 	c #313131",
"1 	c #3B3B3B",
"2 	c #535353",
"3 	c #9F9F9F",
"4 	c #AFAFAF",
"5 	c #B5B5B5",
"6 	c #BBBBBB",
"7 	c #B8B8B8",
"8 	c #B4B4B4",
"9 	c #A6A6A6",
"0 	c #848484",
"a 	c #6A6A6A",
"b 	c #383838",
"c 	c #303030",
"d 	c #2D2D2D",
"e 	c #404040",
"f 	c #5A5A5A",
"g 	c #828282",
"h 	c #A2A2A2",
"i 	c #B3B3B3",
"j 	c #B9B9B9",
"k 	c #979797",
"l 	c #7D7D7D",
"m 	c #666666",
"n 	c #4D4D4D",
"o 	c #323232",
"p 	c #2F2F2F",
"q 	c #2E2E2E",
"r 	c #3F3F3F",
"s 	c #585858",
"t 	c #878787",
"u 	c #B2B2B2",
"v 	c #BABABA",
"w 	c #A8A8A8",
"x 	c #8C8C8C",
"y 	c #787878",
"z 	c #656565",
"A 	c #505050",
"B 	c #343434",
"C 	c #393939",
"D 	c #464646",
"E 	c #9C9C9C",
"F 	c #868686",
"G 	c #444444",
"H 	c #3A3A3A",
"I 	c #333333",
"J 	c #696969",
"K 	c #595959",
"L 	c #4B4B4B",
"M 	c #424242",
"N 	c #3C3C3C",
"O 	c #484848",
"P 	c #5B5B5B",
"Q 	c #8E8E8E",
"R 	c #A5A5A5",
"S 	c #B0B0B0",
"T 	c #B1B1B1",
"U 	c #777777",
"V 	c #6C6C6C",
"W 	c #5F5F5F",
"X 	c #575757",
"Y 	c #737373",
"Z 	c #989898",
"` 	c #ADADAD",
" .	c #7A7A7A",
"..	c #686868",
"+.	c #5E5E5E",
"@.	c #9D9D9D",
"#.	c #A9A9A9",
"$.	c #9B9B9B",
"%.	c #7E7E7E",
"&.	c #6F6F6F",
"*.	c #646464",
"=.	c #606060",
"-.	c #6B6B6B",
";.	c #888888",
">.	c #919191",
",.	c #727272",
"'.	c #7C7C7C",
". . . . . . . . . . + @ @ # # + $ $ . . . . ",
". . . . . . . . . . + @ # # + + $ . . . . . ",
". . . . . . . . . . + + # # + $ $ . . . . . ",
". . . . . . . . . . + + + + + $ . . . . . . ",
". . . . . . . . . . + + + + $ $ . . . . . . ",
". . . . . . . . . . + + + $ $ . . . . . . . ",
". . . . . . . . . . + + $ $ . . . . . . . . ",
". . . . . . . . . . + $ $ . . . . . . . . . ",
"% % % % % % % % % % % & * % % % % % % % % % ",
"% % % % % % = - ; > , ' ) ! ~ { ] % % % % % ",
"% % % % ^ $ / ( _ : % < [ } | 1 2 ~ & % % % ",
"% % % 3 4 5 6 7 8 9 0 a [ b c d | e f g % % ",
"% % h i 7 6 j 8 8 k l m n 1 o p q o r s t % ",
"% , u _ v 7 5 8 w x y z A r B o | o C D a % ",
"% 9 8 _ _ 5 8 u E F ' m 2 G H B I B H G ! * ",
"% / i 5 5 8 ( > ^ 0 ' J K L M N H 1 r O P Q ",
"% R S T u ( _ R = 0 U V W 2 L D G D [ X Y % ",
"% Z > ` 4 8 T $ % 0  .~ ..+.X ) ) 2 f m ] % ",
"% % @.#./ : 9 $.% F %.' &.J *.=.=.*.-.;.% % ",
"% % % k $ $ @.Z >.;.g l U ,.< &.&. .x % % % ",
"% % % % >.- Z - = ] t g %.'.'.{ ] % % % % % ",
"% % % % % % % % % Q * x x Q % % % % % % % % "};
