/* XPM */
static char*penwhite_xpm[]={
"22 22 5 1",
"c c #a0a0a0",
"# c #000000",
"b c #dcdcdc",
"a c #ffffff",
". c None",
"..........#aabb#cc....",
"..........#abb##c.....",
"..........##bb#cc.....",
"..........#####c......",
"..........####cc......",
"..........###cc.......",
"..........##cc........",
"..........#cc.........",
"...........c..........",
"......................",
"......................",
"....aaaaaaaaaaaaaa....",
"...aaaaaaaaaaaaaaaa...",
"..aaaaaaaaaaaaaaaaaa..",
".aaaaaaaaaaaaaaaaaaaa.",
"aaaaaaaaaaaaaaaaaaaaaa",
"aaaaaaaaaaaaaaaaaaaaaa",
"aaaaaaaaaaaaaaaaaaaaaa",
"aaaaaaaaaaaaaaaaaaaaaa",
"aaaaaaaaaaaaaaaaaaaaaa",
"aaaaaaaaaaaaaaaaaaaaaa",
"aaaaaaaaaaaaaaaaaaaaaa"};

