/* XPM */
static char * peur_xpm[] = {
"56 46 17 1",
" 	c None",
".	c #285D49",
"+	c #010101",
"@	c #FFFFFF",
"#	c #79869E",
"$	c #D7DFE7",
"%	c #EFF3F7",
"&	c #E7E7EF",
"*	c #A7A4A7",
"=	c #969696",
"-	c #AEAEB6",
";	c #8E8A8E",
">	c #000011",
",	c #303430",
"'	c #717986",
")	c #A69EA6",
"!	c #CFC7CF",
"                                                        ",
"                                                        ",
"                                                        ",
"                                                        ",
"                                                        ",
"                                                        ",
"                                                        ",
"                                                        ",
"                                                        ",
"                                                        ",
"                                                        ",
"                     .+++     .+++                      ",
"                    .+           +.                     ",
"                   .              ++                    ",
"                   ++++++    +++++++                    ",
"                   +@@@@#+  +@@@@$#+                    ",
"                  +$@%@%$#++$@%@@$$+                    ",
"                 ++@@@@@&*++@@@@%@&++                   ",
"                 +$@%++@$*#+@%++@%&#+                   ",
"                 +$@@++@*=#+@@++%&=#+                   ",
"                 ++$@@$$-#++$$@@&**++                   ",
"                  +;$$**#.++#*$$*=#+                    ",
"                   +>;#.++  +++##+++                    ",
"                     +++      ++++                      ",
"                                                        ",
"                    ++++++++++++++++                    ",
"                 +++@@@.@@@.@@@.@@@++                   ",
"                ++@.@*=.$*=.@$=.@=*.@+                  ",
"                +.@....,...,...,..'.=.+                 ",
"                +...%@$.@@@.%@@.%...'.+                 ",
"                +.@,@$$.$$=.@$=.@$@...+                 ",
"                +.@.%);.$*++++'.@)=,!.+                 ",
"                +.%.@;'+++    >++=).$.+                 ",
"                 ++.@-++         >'.++                  ",
"                   +++            +>                    ",
"                                                        ",
"                                                        ",
"                                                        ",
"                                                        ",
"                                                        ",
"                                                        ",
"                                                        ",
"                                                        ",
"                                                        ",
"                                                        ",
"                                                        "};
