/* XPM */
static char *povini_xpm[]={
"32 32 163 2",
"Qt c None",
"aa c #025b26",
"as c #035b26",
".K c #04973f",
".R c #04983f",
"#0 c #099541",
"#e c #0d9242",
"#6 c #0e552a",
"am c #0e9242",
".I c #0f6632",
".y c #10894e",
".1 c #108a4e",
"#t c #129044",
"ad c #136133",
"#P c #138842",
"ab c #146033",
"#S c #146133",
".g c #148b4a",
"ah c #166c38",
"#4 c #166c39",
".S c #168356",
"ac c #178d45",
".m c #178d46",
".5 c #185b33",
"a. c #185c33",
"al c #188d45",
"#Z c #188d46",
"ae c #1a6f3c",
"#H c #1b6c3b",
".l c #1c5734",
"#f c #1c7c5d",
"#G c #1c8b47",
"#8 c #1d5634",
".f c #1d5b3c",
".c c #1d624c",
"#V c #1d8b48",
"#T c #1e723f",
"#O c #1f311d",
".d c #207d59",
"#c c #215135",
"#5 c #217542",
"af c #21884a",
".J c #218949",
"#I c #222222",
"ap c #225135",
".b c #227564",
"#W c #228d4c",
"#E c #23364d",
".# c #23364e",
"#r c #264c35",
"a# c #26854c",
"#C c #26864b",
"#D c #286e6b",
".n c #286e6c",
"aq c #287b48",
"#U c #297b48",
"ar c #297b49",
".H c #2a4736",
"#N c #2a5e3e",
"aC c #2a8c50",
"#d c #2b834d",
"#B c #2e4237",
".h c #2e6773",
".L c #2e6873",
"#z c #2f4237",
"#s c #30814f",
"aw c #31724a",
"#1 c #324c3b",
"au c #326b47",
"#9 c #333d37",
"aB c #338753",
"ao c #343d37",
".2 c #34617a",
"aA c #348753",
"#b c #383838",
".3 c #383c40",
"aD c #384b3d",
"#3 c #385543",
"ay c #387f53",
".x c #393f48",
".0 c #394350",
".6 c #394758",
".Q c #394a60",
".a c #394b60",
".k c #394e69",
".T c #395271",
".e c #3a5271",
".w c #3a5a81",
"ax c #3f7e56",
"#w c #403233",
"av c #407753",
"#7 c #414a43",
"#X c #424741",
".j c #455074",
"aG c #464643",
"ak c #464644",
"az c #477d5a",
"#R c #482c2e",
"#J c #482d2e",
"#Q c #492d2e",
".z c #4a4767",
"#Y c #4a5d4f",
"#v c #4f2c2d",
".7 c #502729",
"#2 c #53705b",
".G c #564766",
"at c #567a61",
"#y c #572729",
".U c #582124",
"aj c #5a5a57",
"#p c #5b2628",
".i c #5d3d59",
".8 c #601c1f",
"#u c #602628",
"#g c #611c1f",
"#j c #612627",
"#a c #613d59",
"ag c #61615e",
".A c #622a3f",
"aF c #667769",
"#l c #68161a",
"#K c #69161a",
".M c #691a22",
"aE c #6d766c",
"an c #6e6e6a",
"#M c #701015",
".o c #702132",
"#i c #731b1d",
"ai c #757570",
"#F c #771619",
".V c #780b10",
"#q c #7e1519",
".p c #7f2031",
"#L c #80050b",
".B c #81050b",
".F c #812a3d",
"#A c #860f14",
".9 c #88040a",
"#m c #88050b",
".X c #8c040a",
".W c #8f040a",
"#k c #8f1723",
".v c #8f202f",
".u c #90202f",
".N c #93040a",
"#. c #940409",
"#x c #97040a",
".C c #9a0309",
"#o c #9a040a",
"## c #9b0f12",
".t c #9b1622",
"#n c #9e0309",
".4 c #a10408",
".q c #a20309",
".O c #a70308",
"#h c #aa0308",
".r c #ac0308",
".P c #ac0d14",
".D c #af0307",
".s c #b20307",
".Y c #b50307",
".Z c #ba0306",
".E c #bb0306",
"QtQtQtQtQtQtQtQtQtQtQtQtQtQtQtQtQtQtQtQtQtQtQtQtQtQtQtQtQtQtQt.#",
"QtQtQtQtQtQtQtQtQtQtQtQtQtQtQtQtQtQtQtQtQtQtQt.a.bQtQtQtQtQtQt.#",
"QtQtQtQtQtQtQtQtQtQtQtQtQtQtQtQtQtQtQtQtQtQtQt.c.dQtQtQtQtQtQt.#",
"QtQtQtQtQtQtQtQtQtQtQtQtQtQtQtQtQtQtQtQtQtQt.e.f.g.hQtQtQtQtQt.#",
"QtQtQtQtQtQtQtQt.i.i.i.jQtQtQtQtQtQtQtQtQtQt.k.l.m.nQtQtQtQtQt.#",
"QtQtQtQtQtQt.o.p.q.r.s.t.u.vQtQtQtQtQtQtQt.w.x.l.m.yQtQtQtQtQt.#",
"QtQtQt.z.A.B.C.C.q.s.D.E.E.E.E.F.GQtQtQtQt.w.H.I.J.K.LQtQtQtQt.#",
"QtQt.e.M.B.B.N.q.q.O.D.E.E.E.E.E.P.GQtQtQt.Q.H.I.J.R.SQtQtQtQt.#",
"Qt.T.U.V.B.W.X.q.O.O.Y.E.E.E.E.E.E.Z.GQtQt.0.H.I.J.R.1.2QtQtQt.#",
".e.3.U.V.B.B.N.C.q.q.D.Y.E.E.E.E.E.4.v.w.e.3.5.I.J.R.R.nQtQtQt.#",
".6.U.7.8.B.B.9.W.q.q.O.O.E.E.E.E.E#.###a.k#b#c.I#d#e.R#fQtQtQt.#",
"#b#b.7#g.B.B.9.B.C.C.q.q#h#h.E.E.E#i#j#k.x#b#c.I#d#e.R.KQtQtQt.#",
"#b#b.U#l.7.B.B.W#m#n#o.q.O.O.O.O.s#p#b#q#b#r.I.I#s#t.R.K.LQtQt.#",
"#b#b.U#l.7.8.B.B.B.9.N.C.q.q.O.O.r#u#b#v#b#b.I.I#s#t.R.R.SQtQt.#",
"#b#b#w#w.8.8.V.V.B.B#m.W#x#n.q.q#n#y#b#b#z#r.I.I#s#t.R.R.1.2Qt.#",
"#b#b#w#w#w.8.U.V.B.B.B.9.W.9.C.X#A#w#b#b#b#B.I.I#s#C.R.R.R#D.w#E",
"#b#b#b.U#b.U.7.7.V.V.B.B.B.B#m#m#F#b#b#b#z#r.I.I#s#G.R.R.R#H#b#I",
"#b#b#b#b#J#J.7.7#l#K.8#L.B.B.B.B#J#b#b#b#r.l.I.I#s#s.R.R.R.K#r#I",
"#b#b#b#b#b#b#w#w.U.U#l#K#M.B.B#L#b#b#b#b#z.l.I.I#s#s.R.R.R.K#N#O",
"#b#b#b#b#b#b#w#w#J#J.U.U.8.7#M.7#b#b#b#b#z.l.I.I#s#s.m.R.R.R#P#O",
"#z#b#b#b#b#b#b#b#b#Q#w#w.U.U#R#J#b#b#b#r#z#S.I#T#U#V.J.R.R.R#W#X",
"#Y#b#b#b#b#b#b#b#b#J#w#w.U.U#b#b#b#b#b#r#r.l.I#T#U#s#Z#e.R.R#0#1",
"#2#3#b#b#b#b#b#b#b#b#b#b#b#b#b#b#b#b#b#z.H.I.I#4#5#s#G#0.R.R.R#6",
"#7#7#b#b#b#b#b#b#b#b#b#b#b#b#b#b#b#b#b#8#9a..I#4#5#sa##t.R.R.Raa",
"#b#b#b#b#b#b#b#b#b#b#b#b#b#b#b#b#b#b#9#9ab#S.I#T#U#s#Zac.R.R.Raa",
"#b#b#b#b#b#b#b#b#b#b#b#b#b#b#b#b#b#b#9#9adad.I#Tae#s.Jaf.R.R.Raa",
"#b#b#b#b#b#b#b#b#b#b#b#b#b#b#b#b#b#b.H.H#r#S.I.I#s#s#dac.R.R.Raa",
"agagagagagagagagagagagag#b#b#b#b#z#z#9#9ab#Sahah#5#s#d#d.m.R.Raa",
"aiaiaiaiaiaiaiaiaiaiaiaiaiajak#b#b#b.5.Ha.a..I#T#5#s#Zalam.R.Raa",
"aiaiaiaiaiaiaiaiaiaiaiaiaiaianag#b#baoap#c.I.I.Iaqar#d#Z.J.R.Ras",
"aiaiaiaiaiaiaiaiaiaiaiaiaiaiaiaiaiataiajauauauavawaxayazaAaBaCaD",
"aiaiaiaiaiaiaiaiaiaiaiaiaiaiaiaiaiaiaiaiaiaiaiaiaEaEaFaiaiaiaiaG"};

