/* XPM */
static char * quit_xpm[] = {
"22 22 77 1",
" 	c None",
".	c #101823",
"+	c #141E2C",
"@	c #344355",
"#	c #464646",
"$	c #434548",
"%	c #000000",
"&	c #5D5D5D",
"*	c #FFFFFF",
"=	c #E7E7E7",
"-	c #0B1118",
";	c #172434",
">	c #40454A",
",	c #D1D1D1",
"'	c #D7D7D7",
")	c #E2E2E2",
"!	c #DDDDDD",
"~	c #B4B4B4",
"{	c #949597",
"]	c #0A1017",
"^	c #7589A3",
"/	c #20252C",
"(	c #F4F4F4",
"_	c #EAEAEA",
":	c #DCDCDC",
"<	c #B7B7B7",
"[	c #8B8B8B",
"}	c #B3B3B3",
"|	c #3C3C3C",
"1	c #777777",
"2	c #757578",
"3	c #141414",
"4	c #AEAEAE",
"5	c #E5E5E5",
"6	c #DFDFDF",
"7	c #CECECE",
"8	c #919195",
"9	c #313133",
"0	c #B9B9B9",
"a	c #F5F5F5",
"b	c #A0A0A4",
"c	c #2B2B2C",
"d	c #1D2228",
"e	c #2C2C2D",
"f	c #253953",
"g	c #4D5259",
"h	c #7F7F7F",
"i	c #C3C3C5",
"j	c #9E9EA1",
"k	c #3A3A3B",
"l	c #4B4B4C",
"m	c #676768",
"n	c #8A8A8A",
"o	c #292929",
"p	c #DBDBDB",
"q	c #B1B1B4",
"r	c #828285",
"s	c #626262",
"t	c #88898C",
"u	c #D6D6D6",
"v	c #2F4055",
"w	c #3B3B3B",
"x	c #666667",
"y	c #B0B0B3",
"z	c #A3A3A6",
"A	c #39393A",
"B	c #101924",
"C	c #27282B",
"D	c #464648",
"E	c #747476",
"F	c #6D6D6F",
"G	c #414143",
"H	c #8D939E",
"I	c #656568",
"J	c #0F0F0F",
"K	c #838387",
"L	c #858589",
"                      ",
"        ......+       ",
"       @######$       ",
"     %%&******=%%-    ",
"   ;>,,'))))))!~~{]   ",
"  ^/#*(_::<[:::::}%   ",
"  :|#*):::1%:::::}%2  ",
"  3456::::1%:::::789  ",
"  %0a:::::1%:::::,bcd ",
"  %0a:::::1%:::::,bceb",
"  %0a:::::1%:::::,bceb",
"  %0a:::::1%:::::,bceb",
"  %0a:::::1%:::::,bceb",
"  %0a:::::1%:::::,bceb",
"  fgh:::::1%::::ijklm ",
"   .|:::::no::p,qr%st ",
"   .|:::::::::ubbr%2  ",
"    vwwxyyyyyyzccA2   ",
"     BCDEEEEEEFeeG    ",
"      HI%%%%%%Jbb     ",
"          KKKKLb      ",
"                      "};
