/* XPM */
static char const * redo_xpm[] = {
"20 20 2 1",
" 	c None",
".	c black",
"                    ",
"                    ",
"                    ",
"                    ",
"                    ",
"                    ",
"      ......        ",
"     ..    ..       ",
"    ..      ..   .  ",
"   ..        .. ..  ",
"  ..          ....  ",
"  .           ....  ",
"             .....  ",
"            ......  ",
"                    ",
"                    ",
"                    ",
"                    ",
"                    ",
"                    "};

