/* XPM */
static char * reuse_result_xpm[] = {
"17 17 4 1",
" 	c None",
".	c #000000",
"+	c #7F7F7F",
"@	c #FFFFFF",
"                 ",
"  ..  .....      ",
" +.@..@@@@@..    ",
" +.@@@@@@@@@@.   ",
" +.@@@@....@@.   ",
" +.@@@@.+++.@@.  ",
" +.@@@@@. +.@@.  ",
" +....... +.@@.  ",
" +++.+++  +.@@.  ",
"   .@.    +.@@.  ",
"  +.@@.....@@.   ",
"  ++.@@@@@@@@.   ",
"   ++.@@@@@..    ",
"    ++.....      ",
"     +++++       ",
"                 ",
"                 "};
