/* XPM */
static char * run2_with_choice_xpm[] = {
"22 22 248 2",
"  	c None",
". 	c #246A58",
"+ 	c #335363",
"@ 	c #197342",
"# 	c #277068",
"$ 	c #821E2E",
"% 	c #891C2B",
"& 	c #832537",
"* 	c #862638",
"= 	c #334B53",
"- 	c #1A723D",
"; 	c #1A8157",
"> 	c #57364F",
", 	c #76121D",
"' 	c #92070E",
") 	c #9D050B",
"! 	c #AD0308",
"~ 	c #B30408",
"{ 	c #CC4808",
"] 	c #F1B604",
"^ 	c #F9CD04",
"/ 	c #797E53",
"( 	c #294E3F",
"_ 	c #18773D",
": 	c #0E8F47",
"< 	c #453F53",
"[ 	c #721219",
"} 	c #85050B",
"| 	c #92040A",
"1 	c #A30309",
"2 	c #A80308",
"3 	c #C42F06",
"4 	c #DD7204",
"5 	c #C14F12",
"6 	c #BC8824",
"7 	c #6D7728",
"8 	c #18783E",
"9 	c #0B9343",
"0 	c #1C7C5D",
"a 	c #3B495F",
"b 	c #4D2C31",
"c 	c #760C11",
"d 	c #82050B",
"e 	c #91040A",
"f 	c #9F0309",
"g 	c #A40309",
"h 	c #E18905",
"i 	c #CF4605",
"j 	c #BB0306",
"k 	c #B40307",
"l 	c #911924",
"m 	c #575E66",
"n 	c #C7B20E",
"o 	c #19773E",
"p 	c #0B9442",
"q 	c #158455",
"r 	c #3E3A41",
"s 	c #4E292A",
"t 	c #68171B",
"u 	c #81050B",
"v 	c #87040A",
"w 	c #94040A",
"x 	c #F0B604",
"y 	c #B60307",
"z 	c #AA060A",
"A 	c #831518",
"B 	c #673245",
"C 	c #B89D1A",
"D 	c #1D7440",
"E 	c #129044",
"F 	c #0A9146",
"G 	c #383838",
"H 	c #4B2B2C",
"I 	c #631A1D",
"J 	c #701116",
"K 	c #84050B",
"L 	c #8B040A",
"M 	c #990309",
"N 	c #A71908",
"O 	c #B82F07",
"P 	c #A90308",
"Q 	c #AC0308",
"R 	c #9A0D10",
"S 	c #4E2D2E",
"T 	c #6A2126",
"U 	c #CCAD0F",
"V 	c #1F7440",
"W 	c #158F45",
"X 	c #04983F",
"Y 	c #1F7960",
"Z 	c #462E2F",
"` 	c #582224",
" .	c #5C1F22",
"..	c #7A0A0F",
"+.	c #7F060C",
"@.	c #86040A",
"#.	c #9C0309",
"$.	c #A20309",
"%.	c #A50308",
"&.	c #900E12",
"*.	c #463132",
"=.	c #7E6723",
"-.	c #929C19",
";.	c #207440",
">.	c #168E45",
",.	c #108A4F",
"'.	c #3D3435",
").	c #423031",
"!.	c #562325",
"~.	c #66181B",
"{.	c #7C080E",
"].	c #86050B",
"^.	c #90040A",
"/.	c #940309",
"(.	c #960309",
"_.	c #78161A",
":.	c #90771F",
"<.	c #E2BD09",
"[.	c #136233",
"}.	c #1F7340",
"|.	c #1F8949",
"1.	c #099245",
"2.	c #306575",
"3.	c #482C2E",
"4.	c #492C2D",
"5.	c #502729",
"6.	c #621B1E",
"7.	c #740E13",
"8.	c #7B090F",
"9.	c #83050B",
"0.	c #C3950F",
"a.	c #B79C15",
"b.	c #3E592F",
"c.	c #116332",
"d.	c #218949",
"e.	c #05963F",
"f.	c #1F633A",
"g.	c #393737",
"h.	c #3E3434",
"i.	c #452F30",
"j.	c #522528",
"k.	c #5F1C20",
"l.	c #6B1419",
"m.	c #760C12",
"n.	c #9B3009",
"o.	c #B89B15",
"p.	c #353B38",
"q.	c #234F35",
"r.	c #116432",
"s.	c #2A844D",
"t.	c #127F3D",
"u.	c #363A38",
"v.	c #413132",
"w.	c #4A2C2D",
"x.	c #532527",
"y.	c #5B1F22",
"z.	c #5C1E22",
"A.	c #C3930E",
"B.	c #4D4832",
"C.	c #333E37",
"D.	c #116533",
"E.	c #207441",
"F.	c #29844C",
"G.	c #0F9243",
"H.	c #0C9141",
"I.	c #3C4941",
"J.	c #443030",
"K.	c #403233",
"L.	c #4F282A",
"M.	c #BB9914",
"N.	c #284A35",
"O.	c #205335",
"P.	c #136735",
"Q.	c #247644",
"R.	c #26844B",
"S.	c #148F44",
"T.	c #05973F",
"U.	c #0A9642",
"V.	c #485F4F",
"W.	c #39413C",
"X.	c #3B3636",
"Y.	c #3A3636",
"Z.	c #2C4636",
"`.	c #1D5634",
" +	c #116734",
".+	c #1C713E",
"++	c #2B804C",
"@+	c #158E45",
"#+	c #069740",
"$+	c #3C413E",
"%+	c #3A3B3A",
"&+	c #8D7A20",
"*+	c #284A36",
"=+	c #1C5834",
"-+	c #126734",
";+	c #2C804C",
">+	c #1A8B47",
",+	c #089640",
"'+	c #343C37",
")+	c #2B4636",
"!+	c #146033",
"~+	c #1E723F",
"{+	c #2B7F4C",
"]+	c #0A9441",
"^+	c #4A4A49",
"/+	c #3C3C3C",
"(+	c #343C38",
"_+	c #304037",
":+	c #2A4736",
"<+	c #185C33",
"[+	c #126834",
"}+	c #2E804E",
"|+	c #26854B",
"1+	c #119143",
"2+	c #70706C",
"3+	c #676763",
"4+	c #4E4E4C",
"5+	c #3E3E3D",
"6+	c #284936",
"7+	c #264C35",
"8+	c #175D33",
"9+	c #136835",
"0+	c #1E733F",
"a+	c #1D8A48",
"b+	c #138F44",
"c+	c #757570",
"d+	c #73736F",
"e+	c #6B6B67",
"f+	c #4B4F4B",
"g+	c #49524B",
"h+	c #345641",
"i+	c #21623B",
"j+	c #1D693B",
"k+	c #267244",
"l+	c #307C4D",
"m+	c #2D844E",
"n+	c #27894D",
"o+	c #149246",
"p+	c #72756F",
"q+	c #71766E",
"r+	c #6A6E67",
"s+	c #607263",
"t+	c #617364",
"u+	c #5F7564",
"v+	c #5D7864",
"w+	c #5E7965",
"x+	c #627A67",
"y+	c #5F7B67",
"                                            ",
"                                .           ",
"                              + @ #         ",
"          $ % & *             = - ;         ",
"    > , ' ) ! ~ { ] ^ ^ ^ ^ / ( _ :         ",
"  < [ } | 1 2 3 ^ ^ 4 5 6 ^ ^ 7 8 9 0       ",
"a b c d e f g h ^ i j k l m ^ n o p q       ",
"r s t u v w f ^ x y j z A B C ^ D E F       ",
"G H I J K L M N O P Q R S T U ^ V W X Y     ",
"G Z `  ...+.@.| #.$.%.&.*.=.^ -.;.>.X ,.    ",
"G '.).!.~.{.u ].^./.(._.:.^ <.[.}.|.X 1.2.  ",
"G G 3.4.5.6.7.8.u 9.].0.^ a.b.c.;.d.X e.f.2.",
"G G g.h.i.j.k.l.m.u n.^ o.p.q.r.}.s.X X t.f.",
"u.G G G '.v.w.x.y.z.A.^ B.C.q.D.E.F.G.X H.t.",
"I.G G G G G J.K.j.L.M.^ G N.O.P.Q.R.S.T.U.H.",
"V.W.G G G G g.g.X.Y.G G G Z.`. +.+++@+#+X X ",
"$+%+G G G G G G G G &+o.u.*+=+-+;.;+>+,+X X ",
"G G G G G G G G G G o.^ '+)+!+-+~+{+|.]+X X ",
"^+^+^+^+^+^+^+^+/+G G (+_+:+<+[+~+}+|+1+X X ",
"2+2+2+2+2+2+2+2+3+4+5+u.6+7+8+9+0+++a+b+X X ",
"c+c+c+c+c+c+c+c+c+d+e+f+g+h+i+j+k+l+m+n+o+o+",
"c+c+c+c+c+c+c+c+c+c+c+p+q+r+s+t+u+v+w+x+y+y+"};
