/* XPM */
static char * run2_xpm[] = {
"22 22 248 2",
"  	c None",
". 	c #246A58",
"+ 	c #335363",
"@ 	c #197342",
"# 	c #277068",
"$ 	c #821E2E",
"% 	c #891C2B",
"& 	c #832537",
"* 	c #862638",
"= 	c #334B53",
"- 	c #1A723D",
"; 	c #1A8157",
"> 	c #57364F",
", 	c #76121D",
"' 	c #92070E",
") 	c #9D050B",
"! 	c #AD0308",
"~ 	c #B30408",
"{ 	c #B6060B",
"] 	c #B70509",
"^ 	c #9C1824",
"/ 	c #673C56",
"( 	c #3A577B",
"_ 	c #294E3F",
": 	c #18773D",
"< 	c #0E8F47",
"[ 	c #453F53",
"} 	c #721219",
"| 	c #85050B",
"1 	c #92040A",
"2 	c #A30309",
"3 	c #A80308",
"4 	c #B60307",
"5 	c #BB0306",
"6 	c #A6111A",
"7 	c #71344C",
"8 	c #394658",
"9 	c #274D3A",
"0 	c #18783E",
"a 	c #0B9343",
"b 	c #1C7C5D",
"c 	c #3B495F",
"d 	c #4D2C31",
"e 	c #760C11",
"f 	c #82050B",
"g 	c #91040A",
"h 	c #9F0309",
"i 	c #A40309",
"j 	c #B10307",
"k 	c #B90306",
"l 	c #B40307",
"m 	c #911924",
"n 	c #445173",
"o 	c #394554",
"p 	c #1D5635",
"q 	c #19773E",
"r 	c #0B9442",
"s 	c #158455",
"t 	c #3E3A41",
"u 	c #4E292A",
"v 	c #68171B",
"w 	c #81050B",
"x 	c #87040A",
"y 	c #94040A",
"z 	c #A50308",
"A 	c #B00307",
"B 	c #AA060A",
"C 	c #831518",
"D 	c #673245",
"E 	c #383F47",
"F 	c #205235",
"G 	c #1D7440",
"H 	c #129044",
"I 	c #0A9146",
"J 	c #383838",
"K 	c #4B2B2C",
"L 	c #631A1D",
"M 	c #701116",
"N 	c #84050B",
"O 	c #8B040A",
"P 	c #990309",
"Q 	c #9E0309",
"R 	c #A60308",
"S 	c #A90308",
"T 	c #AC0308",
"U 	c #9A0D10",
"V 	c #4E2D2E",
"W 	c #6A2126",
"X 	c #314039",
"Y 	c #165E33",
"Z 	c #1F7440",
"` 	c #158F45",
" .	c #04983F",
"..	c #1F7960",
"+.	c #462E2F",
"@.	c #582224",
"#.	c #5C1F22",
"$.	c #7A0A0F",
"%.	c #7F060C",
"&.	c #86040A",
"*.	c #9C0309",
"=.	c #A20309",
"-.	c #900E12",
";.	c #463132",
">.	c #413433",
",.	c #333E37",
"'.	c #136133",
").	c #207440",
"!.	c #168E45",
"~.	c #108A4F",
"{.	c #3D3435",
"].	c #423031",
"^.	c #562325",
"/.	c #66181B",
"(.	c #7C080E",
"_.	c #86050B",
":.	c #90040A",
"<.	c #940309",
"[.	c #960309",
"}.	c #78161A",
"|.	c #3E3435",
"1.	c #373938",
"2.	c #304137",
"3.	c #136233",
"4.	c #1F7340",
"5.	c #1F8949",
"6.	c #099245",
"7.	c #306575",
"8.	c #482C2E",
"9.	c #492C2D",
"0.	c #502729",
"a.	c #621B1E",
"b.	c #740E13",
"c.	c #7B090F",
"d.	c #83050B",
"e.	c #592627",
"f.	c #353B38",
"g.	c #274B35",
"h.	c #116332",
"i.	c #218949",
"j.	c #05963F",
"k.	c #1F633A",
"l.	c #393737",
"m.	c #3E3434",
"n.	c #452F30",
"o.	c #522528",
"p.	c #5F1C20",
"q.	c #6B1419",
"r.	c #760C12",
"s.	c #3C3535",
"t.	c #234F35",
"u.	c #116432",
"v.	c #2A844D",
"w.	c #127F3D",
"x.	c #363A38",
"y.	c #413132",
"z.	c #4A2C2D",
"A.	c #532527",
"B.	c #5B1F22",
"C.	c #5C1E22",
"D.	c #582124",
"E.	c #116533",
"F.	c #207441",
"G.	c #29844C",
"H.	c #0F9243",
"I.	c #0C9141",
"J.	c #3C4941",
"K.	c #443030",
"L.	c #403233",
"M.	c #4F282A",
"N.	c #3F3334",
"O.	c #284A35",
"P.	c #205335",
"Q.	c #136735",
"R.	c #247644",
"S.	c #26844B",
"T.	c #148F44",
"U.	c #05973F",
"V.	c #0A9642",
"W.	c #485F4F",
"X.	c #39413C",
"Y.	c #3B3636",
"Z.	c #3A3636",
"`.	c #2C4636",
" +	c #1D5634",
".+	c #116734",
"++	c #1C713E",
"@+	c #2B804C",
"#+	c #158E45",
"$+	c #069740",
"%+	c #3C413E",
"&+	c #3A3B3A",
"*+	c #284A36",
"=+	c #1C5834",
"-+	c #126734",
";+	c #2C804C",
">+	c #1A8B47",
",+	c #089640",
"'+	c #343C37",
")+	c #2B4636",
"!+	c #146033",
"~+	c #1E723F",
"{+	c #2B7F4C",
"]+	c #0A9441",
"^+	c #4A4A49",
"/+	c #3C3C3C",
"(+	c #343C38",
"_+	c #304037",
":+	c #2A4736",
"<+	c #185C33",
"[+	c #126834",
"}+	c #2E804E",
"|+	c #26854B",
"1+	c #119143",
"2+	c #70706C",
"3+	c #676763",
"4+	c #4E4E4C",
"5+	c #3E3E3D",
"6+	c #284936",
"7+	c #264C35",
"8+	c #175D33",
"9+	c #136835",
"0+	c #1E733F",
"a+	c #1D8A48",
"b+	c #138F44",
"c+	c #757570",
"d+	c #73736F",
"e+	c #6B6B67",
"f+	c #4B4F4B",
"g+	c #49524B",
"h+	c #345641",
"i+	c #21623B",
"j+	c #1D693B",
"k+	c #267244",
"l+	c #307C4D",
"m+	c #2D844E",
"n+	c #27894D",
"o+	c #149246",
"p+	c #72756F",
"q+	c #71766E",
"r+	c #6A6E67",
"s+	c #607263",
"t+	c #617364",
"u+	c #5F7564",
"v+	c #5D7864",
"w+	c #5E7965",
"x+	c #627A67",
"y+	c #5F7B67",
"                                            ",
"                                .           ",
"                              + @ #         ",
"          $ % & *             = - ;         ",
"    > , ' ) ! ~ { ] ^ /     ( _ : <         ",
"  [ } | 1 2 3 4 5 5 5 6 7   8 9 0 a b       ",
"c d e f g h i j k 5 5 l m n o p q r s       ",
"t u v w x y h z A 4 5 B C D E F G H I       ",
"J K L M N O P Q R S T U V W X Y Z `  ...    ",
"J +.@.#.$.%.&.1 *.=.z -.;.>.,.'.).!. .~.    ",
"J {.].^./.(.w _.:.<.[.}.|.1.2.3.4.5. .6.7.  ",
"J J 8.9.0.a.b.c.w d._.e.J f.g.h.).i. .j.k.7.",
"J J l.m.n.o.p.q.r.w w s.J f.t.u.4.v. . .w.k.",
"x.J J J {.y.z.A.B.C.D.J J ,.t.E.F.G.H. .I.w.",
"J.J J J J J K.L.o.M.N.J J O.P.Q.R.S.T.U.V.I.",
"W.X.J J J J l.l.Y.Z.J J J `. +.+++@+#+$+ . .",
"%+&+J J J J J J J J J J x.*+=+-+).;+>+,+ . .",
"J J J J J J J J J J J J '+)+!+-+~+{+5.]+ . .",
"^+^+^+^+^+^+^+^+/+J J (+_+:+<+[+~+}+|+1+ . .",
"2+2+2+2+2+2+2+2+3+4+5+x.6+7+8+9+0+@+a+b+ . .",
"c+c+c+c+c+c+c+c+c+d+e+f+g+h+i+j+k+l+m+n+o+o+",
"c+c+c+c+c+c+c+c+c+c+c+p+q+r+s+t+u+v+w+x+y+y+"};
