/* XPM */
static char * save_copy_as_xpm[] = {
"22 22 17 1",
" 	c None",
".	c #000000",
"+	c #B3B3B3",
"@	c #E5E5E5",
"#	c #B2B2B2",
"$	c #4C4C4C",
"%	c #1A1A1A",
"&	c #666666",
"*	c #CBCBCB",
"=	c #333333",
"-	c #989898",
";	c #7F7F7F",
">	c #777777",
",	c #9F9F9F",
"'	c #303030",
")	c #808080",
"!	c #999999",
"                      ",
"   .................. ",
"   .++++++++++++++++. ",
" ..................+. ",
" .++.@@@@@@@@@@.++.+. ",
" .++.@@@@@@@@@@.++.+. ",
" .++.@@#$.%&*@@.+..+. ",
" .++.@#.....%*@.++.+. ",
" .++.@$.$@*%.=@.++.+. ",
" .++.@..-@@-..@.++.+. ",
" .++.@--*@@;..@.++.+. ",
" .++.@@@@@-..&@.++.+. ",
" .++............++.+. ",
" .+++++++..>++++++.+. ",
" .++++++,''+++++++.+. ",
" .++.....)).....++.+. ",
" .++.!!!&..!.@@.++.+. ",
" .++.!!!&..!.@@.++.+. ",
" .++.!!!!!!!.@@.++.+. ",
"  .+.!!!!!!!.@@.++... ",
"   ................   ",
"                      "};
