/* XPM */
static char *settings_xpm[]={
"22 22 147 2",
"Qt c None",
"#l c #0e0e0e",
".C c #111111",
"#1 c #141414",
".f c #161616",
"aa c #171717",
".q c #191919",
"#w c #1a1a1a",
".a c #1b1b1b",
"## c #1c1c1c",
".J c #1d1d1d",
"ai c #1e1e1e",
".8 c #1f1f1f",
"#8 c #232323",
"#O c #242424",
".y c #252525",
".t c #262626",
"aq c #272727",
".l c #282828",
".x c #292929",
".o c #2a2a2a",
".B c #2c2c2c",
".u c #2d2d2d",
".z c #2e2e2e",
".G c #2f2f2f",
".5 c #303030",
".g c #313131",
"#o c #323232",
".U c #333333",
"an c #343434",
".h c #353535",
".m c #363636",
"#r c #373737",
".# c #393939",
"#4 c #3a3a3a",
".1 c #3b3b3b",
"#v c #3c3c3c",
"#H c #3d3d3d",
".b c #3f3f3f",
"#9 c #404040",
".I c #414141",
"#b c #434343",
".H c #454545",
".4 c #464646",
"#6 c #474747",
".i c #484848",
".v c #494949",
".s c #4a4a4a",
".w c #4b4b4b",
"ad c #4c4c4c",
"am c #4d4d4d",
"ap c #4e4e4e",
".r c #4f4f4f",
".n c #505050",
".c c #515151",
".e c #525252",
"a# c #535353",
"ae c #555555",
"#7 c #565656",
"#c c #595959",
"#m c #5a5a5a",
".V c #5c5c5c",
".S c #5e5e5e",
"#n c #5f5f5f",
"#t c #606060",
".j c #636363",
".F c #666666",
"#h c #676767",
".Y c #686868",
".L c #696969",
".K c #6a6a6a",
"#V c #6b6b6b",
".9 c #6c6c6c",
".O c #6d6d6d",
"#x c #6f6f6f",
".T c #727272",
".d c #737373",
"#X c #757575",
"#5 c #767676",
".7 c #777777",
".6 c #787878",
".k c #797979",
"af c #7a7a7a",
"ao c #7b7b7b",
"#a c #818181",
"#s c #828282",
"#g c #848484",
".p c #888888",
".D c #898989",
"#q c #8c8c8c",
".Z c #8f8f8f",
"#P c #909090",
"al c #919191",
"#C c #979797",
"ac c #989898",
"#A c #999999",
".R c #9d9d9d",
"#W c #9e9e9e",
"#R c #9f9f9f",
"#f c #a1a1a1",
"#M c #a3a3a3",
"#J c #a4a4a4",
".A c #a8a8a8",
".0 c #ababab",
"#Y c #acacac",
"aj c #b0b0b0",
".P c #b2b2b2",
"ag c #b8b8b8",
"ab c #bababa",
".M c #bbbbbb",
"#z c #bebebe",
"#L c #bfbfbf",
"#B c #c0c0c0",
"#2 c #c1c1c1",
".X c #c2c2c2",
"#T c #c3c3c3",
".W c #c5c5c5",
".N c #c7c7c7",
"#k c #c8c8c8",
".E c #c9c9c9",
"#S c #cbcbcb",
"#y c #cdcdcd",
"ak c #cecece",
"#. c #d4d4d4",
"#F c #d7d7d7",
"#Q c #dadada",
"#e c #dddddd",
"#3 c #dfdfdf",
"#I c #e0e0e0",
".Q c #e1e1e1",
"ah c #e3e3e3",
"#Z c #e5e5e5",
"#E c #e6e6e6",
"#u c #e7e7e7",
"#U c #eaeaea",
"#G c #ebebeb",
"#N c #ececec",
".3 c #efefef",
"#p c #f2f2f2",
"#i c #f3f3f3",
"#0 c #f6f6f6",
"#D c #f7f7f7",
"#j c #f8f8f8",
"#K c #fafafa",
"a. c #fdfdfd",
"#d c #fefefe",
".2 c #ffffff",
"QtQtQtQtQtQtQtQtQt.#.a.b.cQtQtQtQtQtQtQtQtQt",
"QtQtQtQtQtQtQtQtQt.#.d.e.f.gQtQtQtQtQtQtQtQt",
"QtQtQtQt.f.h.iQtQt.#.j.k.l.m.f.b.nQtQtQtQtQt",
"QtQtQtQt.o.p.q.l.r.#.s.t.u.v.w.x.y.zQtQtQtQt",
"QtQtQtQt.l.A.B.e.x.C.D.E.F.G.m.w.H.C.o.I.cQt",
"QtQtQtQt.J.n.q.K.K.e.o.L.M.N.O.l.h.t.P.B.#.z",
"QtQtQtQt.#.Q.R.B.i.S.T.U.y.V.W.X.Y.l.Z.h.0.g",
"QtQtQtQt.1.2.2.3.p.4.5.w.6.7.8.9.N#..j###a.U",
"#b.a.e#c.1.2.2.2#d#e#f.J#c#g.j.k#h#i#j#k.O#l",
".f#m#n.s#o#i.2.2.2.2.2#p#q#r#b#s#t.N.2.2#u#v",
"#w#x#y#z#A.4#B.2.2.2.2.2.2#e#C.B#t.N.2.2#u#v",
"#w#x#D#E#F#G#H.v#I.2.2.2.2.2.2#J#t.N.2.2#u#v",
"#w#x#D.2#K#L#m.l#M.2.2.2.2.2.2#J#t.N.2.2#u#v",
"#w#x#N.2.2#L#m#O#P#Q.2.2.2.2.2#J#t.N.2.2#u#v",
"#w#t#R#S#K#L#m#O#P#F.2.2.2.2.2#J#t#T#U.2#u#v",
"#w#H.n#V#P#W#m#O#X#Y#Z#0.2.2.2#J#1#r#R#2#3#v",
"#w#4#5.v#6.K#7#O#8#9#t.E#3a..2#J.z#7.za##g#v",
"aa.mabac.k#rad#O.Hae.w.Gafagah#M.zQtQt.r#9.f",
".lai#Xajakae.e#O.HQtQtQt.1.#.9al.zQtQtQtQtQt",
"Qtam#Hanao.e.e#O.HQtQtQtQt#7.H.G.gQtQtQtQtQt",
"QtQtQtQt.o.B.m#O.HQtQtQtQtQtQtQtQtQtQtQtQtQt",
"QtQtQtQtQtap#4aqaeQtQtQtQtQtQtQtQtQtQtQtQtQt"};

