/* XPM */
static char * sine_concave_w_xpm[] = {
"22 22 2 1",
" 	c None",
".	c #000000",
"                      ",
"          ..          ",
"        ....          ",
"       ... ..         ",
"      ...  ..         ",
"     ..     .         ",
"     ..     .         ",
"     .      ..        ",
"    ..       .        ",
"    .        .        ",
"   ..        ..       ",
"   ..         .       ",
"   .          ..      ",
"  ..          ..      ",
"  .            .      ",
" ..            ..     ",
" ..             .     ",
" .              ..    ",
"..               ..   ",
"..               ..   ",
".                 ..  ",
".                  ..."};
