/* XPM */
static char *stats_xpm[]={
"22 22 30 1",
". c None",
"e c #3f3f3f",
"k c #404040",
"d c #414141",
"i c #424242",
"q c #454545",
"r c #494949",
"c c #4a4a4a",
"n c #4b4b4b",
"b c #4d4d4d",
"j c #525252",
"a c #535353",
"B c #545454",
"# c #555555",
"f c #565656",
"s c #575757",
"g c #606060",
"h c #6f6f6f",
"o c #808080",
"x c #828282",
"u c #8d8d8d",
"t c #929292",
"p c #9e9e9e",
"l c #c2c2c2",
"y c #dadada",
"A c #dcdcdc",
"v c #f2f2f2",
"z c #f3f3f3",
"w c #fbfbfb",
"m c #ffffff",
"........#aaaa#........",
"......bcdeeeedcb......",
"....fceeeeghhieecf....",
"...jkeeeeelmmneeekj...",
"..fkeeeeeelmmneeeekf..",
"..neeeeeeeoppqeeeeen..",
".beeeeerssssskeeeeeeb.",
".ceeeeetmmmmmneeeeeec.",
"#deeeeeuvvwmmneeeeeed#",
"aeeeeeeeeelmmneeeeeeea",
"aeeeeeeeeelmmneeeeeeea",
"aeeeeeeeeelmmneeeeeeea",
"aeeeeeeeeelmmneeeeeeea",
"#deeeeeeeelmmneeeeeed#",
".ceeeeeeeelmmneeeeeec.",
".beeeeeeeelmmneeeeeeb.",
"..neeeeeeelmmneeeeen..",
"..fkeeexyyzmmAyjeekf..",
"...jkeetmmmmmmmsekj...",
"....fceBhhhhhhhqcf....",
"......bcdeeeedcb......",
"........#aaaa#........"};

