/* XPM */
static char * subdiv2_xpm[] = {
"22 22 11 1",
" 	c None",
".	c #000000",
"+	c #666666",
"@	c #383838",
"#	c #1C1C1C",
"$	c #161616",
"%	c #0C0C0C",
"&	c #0A0A0A",
"*	c #191919",
"=	c #030303",
"-	c #090909",
"     .     .    .     ",
"     .     .    .     ",
"     .     .    .     ",
"     .    +@    .     ",
"     . #.....$  .     ",
"..............%.......",
"     . ..  .... .     ",
"     .     .... .     ",
"     .     .... .     ",
"     .     .... .     ",
"...........&..........",
"     .    *...  .     ",
"     .   %..=   .     ",
"     .  =..-    .     ",
"     . =..=     .     ",
"     ............     ",
"......................",
"     .     .    .     ",
"     .     .    .     ",
"     .     .    .     ",
"     .     .    .     ",
"     .     .    .     "};
