/* XPM */
static char * subdiv1_xpm[] = {
"22 22 3 1",
" 	c None",
".	c #000000",
"+	c #262626",
"     .     .    .     ",
"     .     .    .     ",
"     .     .    .     ",
"     .     .    .     ",
"     .    ...   .     ",
"........+.............",
"     . ......   .     ",
"     . ......   .     ",
"     .   ....   .     ",
"     .   ....   .     ",
"......................",
"     .   ....   .     ",
"     .   ....   .     ",
"     .   ....   .     ",
"     .   ....   .     ",
"     . ........ .     ",
"......................",
"     .     .    .     ",
"     .     .    .     ",
"     .     .    .     ",
"     .     .    .     ",
"     .     .    .     "};
