/* XPM */
static char * threshold_xpm[] = {
"22 22 4 1",
" 	c None",
".	c #606060",
"+	c #FF0000",
"@	c #000000",
"                      ",
"         ...          ",
"         ...          ",
"        .....         ",
"        ......        ",
"++++++++++++++++++++++",
"       @@@@@@@@       ",
"      @@@@@@@@@       ",
"      @@@@@@@@@@      ",
"     @@@@@@@@@@@      ",
"     @@@@@@@@@@@@     ",
"    @@@@@@@@@@@@@     ",
"    @@@@@@@@@@@@@@    ",
"    @@@@@@@@@@@@@@    ",
"++++++++++++++++++++++",
"   ................   ",
"  ..................  ",
"  ..................  ",
"  ..................  ",
"                      ",
"                      ",
"                      "};
