/* XPM */
static char * transform_xpm[] = {
"22 22 87 1",
" 	c None",
".	c #383838",
"+	c #595959",
"@	c #6A6A6A",
"#	c #5C5C5C",
"$	c #474747",
"%	c #ABABAB",
"&	c #D0D0D0",
"*	c #C2C2C2",
"=	c #AEAEAE",
"-	c #717171",
";	c #464646",
">	c #D5D5D5",
",	c #D1D1D1",
"'	c #BEBEBE",
")	c #C7C7C7",
"!	c #B7B7B7",
"~	c #5B5B5B",
"{	c #4B4B4B",
"]	c #A7A7A7",
"^	c #353535",
"/	c #363636",
"(	c #8D8D8D",
"_	c #787878",
":	c #5A5A5A",
"<	c #747474",
"[	c #BCBCBC",
"}	c #B4B4B4",
"|	c #3A3A3A",
"1	c #555555",
"2	c #727272",
"3	c #6F6F6F",
"4	c #A0A0A0",
"5	c #484848",
"6	c #333333",
"7	c #6B6B6B",
"8	c #959595",
"9	c #919191",
"0	c #CBCBCB",
"a	c #8B8B8B",
"b	c #565656",
"c	c #4D4D4D",
"d	c #767676",
"e	c #D2D2D2",
"f	c #A4A4A4",
"g	c #424242",
"h	c #4A4A4A",
"i	c #808080",
"j	c #C3C3C3",
"k	c #C0C0C0",
"l	c #949494",
"m	c #3C3C3C",
"n	c #818181",
"o	c #000000",
"p	c #6E6E6E",
"q	c #A3A3A3",
"r	c #7B7B7B",
"s	c #7A7A7A",
"t	c #737373",
"u	c #B8B8B8",
"v	c #8C8C8C",
"w	c #3E3E3E",
"x	c #B1B1B1",
"y	c #BABABA",
"z	c #797979",
"A	c #8F8F8F",
"B	c #ACACAC",
"C	c #868686",
"D	c #7E7E7E",
"E	c #585858",
"F	c #9E9E9E",
"G	c #262626",
"H	c #434343",
"I	c #A6A6A6",
"J	c #494949",
"K	c #CFCFCF",
"L	c #6C6C6C",
"M	c #373737",
"N	c #CECECE",
"O	c #898989",
"P	c #454545",
"Q	c #5E5E5E",
"R	c #5F5F5F",
"S	c #656565",
"T	c #939393",
"U	c #757575",
"V	c #3B3B3B",
"        .+@#$         ",
"        .%&*=-;.      ",
"        .>,,')!~..    ",
"        {>,]^/~(_:.   ",
"       .<[,}/  |12~.  ",
"       .34,,5.  .67.  ",
"       .890,a.   ...  ",
"      .b!,},)c.       ",
"      .de}=,,fg.      ",
"     hijk}},,,lcm     ",
"   .#9*0noooo,,]}o.   ",
"  .pqe=rooooooc,oos.  ",
" .t]u+oo;}}}}ooooovw  ",
".bxy,aa,,,,,,}oooo,z. ",
".re,,,,,,,,,,ooooo}9/ ",
".AB,ooooo,,,,,,,,,}s+.",
".C,,oooo,,,,,,,,,}}Dc.",
".E,,ooooo,,,,ooo,,}F. ",
" .q,ooGHoooooo;,}9I3. ",
"  JAo,,}cooooa,,KyLM  ",
"   6},,,,,,,,,N}O^.   ",
"    ..PQRSTTnU~V..    "};
