/* XPM */
static char const * undo_xpm[] = {
"20 20 2 1",
" 	c None",
".	c black",
"                    ",
"                    ",
"                    ",
"                    ",
"                    ",
"                    ",
"        ......      ",
"       ..    ..     ",
"  .   ..      ..    ",
"  .. ..        ..   ",
"  ....          ..  ",
"  ....           .  ",
"  .....             ",
"  ......            ",
"                    ",
"                    ",
"                    ",
"                    ",
"                    ",
"                    "};

