/* XPM */
static char * uparrow_xpm[] = {
"22 10 61 1",
" 	c None",
".	c #0B0B0B",
"+	c #323232",
"@	c #101010",
"#	c #545454",
"$	c #959595",
"%	c #434343",
"&	c #727272",
"*	c #EEEEEE",
"=	c #A5A5A5",
"-	c #111111",
";	c #373737",
">	c #6B6B6B",
",	c #848484",
"'	c #C1C1C1",
")	c #FFFFFF",
"!	c #989898",
"~	c #393939",
"{	c #696969",
"]	c #858585",
"^	c #A2A2A2",
"/	c #A1A1A1",
"(	c #9C9C9C",
"_	c #3A3A3A",
":	c #8D8D8D",
"<	c #969696",
"[	c #919191",
"}	c #0D0D0D",
"|	c #353535",
"1	c #646464",
"2	c #898989",
"3	c #B5B5B5",
"4	c #838383",
"5	c #909090",
"6	c #939393",
"7	c #585858",
"8	c #B0B0B0",
"9	c #8E8E8E",
"0	c #868686",
"a	c #B1B1B1",
"b	c #979797",
"c	c #0A0A0A",
"d	c #3E3E3E",
"e	c #4C4C4C",
"f	c #535353",
"g	c #5F5F5F",
"h	c #5E5E5E",
"i	c #606060",
"j	c #616161",
"k	c #626262",
"l	c #686868",
"m	c #7B7B7B",
"n	c #4A4A4A",
"o	c #000000",
"p	c #020202",
"q	c #030303",
"r	c #050505",
"s	c #191919",
"t	c #060606",
"u	c #040404",
"v	c #010101",
"          .+          ",
"         @#$+         ",
"        @%&*=+        ",
"       -;>,')!+       ",
"      @~{]^/')(+      ",
"     @_>:^<[=')(+     ",
"    }|123<4,5/')6+    ",
"   .~7>8<94,06(a*b+   ",
"  c+defghggijkkhlmn+  ",
"  opqqrsoooooootquuv  "};
