/* XPM */
static char * uparrow_xpm[] = {
"15 9 9 1",
" 	g None",
".	g #333333",
"+	g #D0D0D0",
"@	g #B9B9B9",
"#	g #B1B1B1",
"$	g #A8A8A8",
"%	g #9F9F9F",
"&	g #969696",
"*	g #8D8D8D",
"      ...      ",
"     .+++.     ",
"    .+@@@@.    ",
"   .+######.   ",
"  .+$$$$$$$$.  ",
" .+%%%%%%%%%%. ",
".+&&&&&&&&&&&&.",
".*************.",
" ............. "};
