/* XPM */
static char * voronoi_bck_xpm[] = {
"22 22 79 1",
" 	c None",
".	c #323232",
"+	c #A7A7A7",
"@	c #EAEAEA",
"#	c #EFEFEF",
"$	c #FFFFFF",
"%	c #050505",
"&	c #868686",
"*	c #DCDCDC",
"=	c #F5F5F5",
"-	c #727272",
";	c #434343",
">	c #212121",
",	c #1B1B1B",
"'	c #909090",
")	c #AFAFAF",
"!	c #333333",
"~	c #FAFAFA",
"{	c #353535",
"]	c #171717",
"^	c #C9C9C9",
"/	c #898989",
"(	c #515151",
"_	c #B8B8B8",
":	c #393939",
"<	c #2C2C2C",
"[	c #1E1E1E",
"}	c #181818",
"|	c #1F1F1F",
"1	c #232323",
"2	c #101010",
"3	c #454545",
"4	c #4C4C4C",
"5	c #9B9B9B",
"6	c #090909",
"7	c #222222",
"8	c #252525",
"9	c #282828",
"0	c #262626",
"a	c #989898",
"b	c #696969",
"c	c #2E2E2E",
"d	c #292929",
"e	c #616161",
"f	c #373737",
"g	c #E5E5E5",
"h	c #6F6F6F",
"i	c #D2D2D2",
"j	c #3F3F3F",
"k	c #484848",
"l	c #666666",
"m	c #949494",
"n	c #414141",
"o	c #6C6C6C",
"p	c #757575",
"q	c #ABABAB",
"r	c #141414",
"s	c #595959",
"t	c #9F9F9F",
"u	c #7F7F7F",
"v	c #070707",
"w	c #5B5B5B",
"x	c #151515",
"y	c #131313",
"z	c #1A1A1A",
"A	c #4F4F4F",
"B	c #7C7C7C",
"C	c #191919",
"D	c #828282",
"E	c #A3A3A3",
"F	c #5E5E5E",
"G	c #303030",
"H	c #535353",
"I	c #1D1D1D",
"J	c #E1E1E1",
"K	c #0E0E0E",
"L	c #BCBCBC",
"M	c #4A4A4A",
"N	c #3D3D3D",
".+@#$$%&*=@@-;@@=$>==#",
",@@#$$-'$=##)!#=~${*$$",
"]^#=$$/($$~~_:$$$$;#$$",
"<[}|12314$$$567789%0|a",
"#@#~$0$$bc$3:$$~$$d$$e",
"@@@='f$$$_%)$~##=$7$$$",
"#@#g8===$$7$$=@@#@1=~$",
"~=~7g#@#~$(h$=@@@di@#=",
"$$'j~#@@=kc95$==!_#@@#",
"$$lm$=#=n5$$05$~>==##o",
"p$2+q$$;a##~$280rs$~tj",
"uvhwjxyt#@@=$z$$$k{An#",
"$<$$$$>l#@@=Bj=#=$CD~@",
"$0$$=#=0B==$>~#@@~*,$#",
"~7@~@@#~])$(<~#@#~$[$$",
"=E!~#@#~p2|FG:===$$7$$",
"~$x$===F3!($~o.$$$$Gsg",
"$^2$$$FB~DH##=oIo$DA+f",
"7jA{/<B=#un@@#~J'va$$$",
"$$$'KJ~#@@xL@#$$${$$$$",
"#=$$x$~#@#BM=~$$;@$$==",
"@@=$+N$~==mA$$$/0$$=@@"};
