/* XPM */
static char * waves_xpm[] = {
"22 22 3 1",
" 	c None",
".	c #000000",
"+	c #4C4C4C",
"...          ...      ",
"..        .....     ..",
"...        .....     .",
"...+.        ...+.    ",
"    .....        .+...",
".     .....        ...",
"..     .....        ..",
".     .....          .",
"    .....        ...  ",
"     .....            ",
"       ....           ",
"          .+...       ",
"            .....     ",
"             .....    ",
"            ...       ",
".         .....     ..",
"..         .....    ..",
"....         .....    ",
"   .....         .....",
".    .....         ...",
"..    .....         ..",
".    ...           ..."};
